<svg width="80" height="80" viewBox="0 0 80 80" fill="none" xmlns="http://www.w3.org/2000/svg">
<path d="M9.50272 61.2154C5.74582 61.2154 2.3646 63.4696 0.928136 66.9392C-0.508328 70.4088 0.287252 74.4088 2.93919 77.0607C5.59112 79.7127 9.59112 80.5082 13.0607 79.0718C16.5303 77.6353 18.7845 74.2541 18.7845 70.4972C18.7845 65.3701 14.6298 61.2154 9.50272 61.2154ZM9.50272 77.127C6.82869 77.127 4.39775 75.5138 3.38117 73.0386C2.3646 70.5635 2.91709 67.7127 4.81764 65.8121C6.71819 63.9116 9.56902 63.3591 12.0442 64.3756C14.5193 65.3922 16.1326 67.8232 16.1326 70.4972C16.1326 74.1657 13.1712 77.127 9.50272 77.127Z" fill="black"/>
<path d="M9.50275 66.5193C7.88949 66.5193 6.45303 67.4917 5.83425 68.9723C5.21546 70.453 5.56905 72.1768 6.69613 73.3038C7.8232 74.4309 9.54695 74.7845 11.0276 74.1657C12.5083 73.5469 13.4807 72.1105 13.4807 70.4972C13.4807 68.3093 11.6906 66.5193 9.50275 66.5193ZM9.50275 71.8232C8.97237 71.8232 8.48618 71.4917 8.28728 71.0055C8.08839 70.5193 8.19889 69.9447 8.57458 69.569C8.95027 69.1933 9.52485 69.0828 10.011 69.2817C10.4972 69.4806 10.8287 69.9668 10.8287 70.4972C10.8287 71.2265 10.232 71.8232 9.50275 71.8232Z" fill="black"/>
<path d="M73.5469 27.1382L69.569 31.1161C69.0608 31.6244 69.0608 32.4642 69.569 32.9946L73.5469 36.9725L75.4254 35.094L72.3757 32.0443L75.4254 28.9946L73.5469 27.1382Z" fill="black"/>
<path d="M73.1491 55.9116H71.8232V54.5856C71.8232 52.3977 70.0331 50.6077 67.8453 50.6077H59.8895C57.7016 50.6077 55.9116 52.3977 55.9116 54.5856V59.8895C55.9116 60.6187 55.3149 61.2154 54.5856 61.2154H41.3259V58.5635H49.2817C51.4696 58.5635 53.2596 56.7734 53.2596 54.5856V40.8176C54.7403 38.5856 55.6243 36.0221 55.8453 33.3701H63.3149L66.895 36.9723L68.7734 35.0939L65.7458 32.0442L68.7955 29.0165L66.9171 27.1381L63.3149 30.7182H55.8453C55.6243 28.0442 54.7403 25.4806 53.2596 23.2707V9.50272C53.2596 7.31487 51.4696 5.52482 49.2817 5.52482H45.3038V4.19885C45.3038 2.011 43.5138 0.220947 41.3259 0.220947C39.1381 0.220947 37.348 2.011 37.348 4.19885V5.52482H30.7182V4.19885C30.7182 2.011 28.9281 0.220947 26.7403 0.220947C24.5524 0.220947 22.7624 2.011 22.7624 4.19885V5.52482H16.1326V4.19885C16.1326 2.011 14.3425 0.220947 12.1546 0.220947C9.9668 0.220947 8.17675 2.011 8.17675 4.19885V5.52482H4.19885C2.011 5.52482 0.220947 7.31487 0.220947 9.50272V54.5856C0.220947 56.7734 2.011 58.5635 4.19885 58.5635H38.674V62.5414C38.674 63.2707 39.2707 63.8674 40 63.8674H54.5856C56.7734 63.8674 58.5635 62.0773 58.5635 59.8895V54.5856C58.5635 53.8563 59.1602 53.2596 59.8895 53.2596H67.8453C68.5745 53.2596 69.1712 53.8563 69.1712 54.5856V55.9116H67.8453C64.1768 55.9116 61.2154 58.8729 61.2154 62.5414V73.1491C61.2154 76.8176 64.1768 79.779 67.8453 79.779H73.1491C76.8176 79.779 79.779 76.8176 79.779 73.1491V62.5414C79.779 58.8729 76.8176 55.9116 73.1491 55.9116ZM50.6077 54.5856C50.6077 55.3149 50.011 55.9116 49.2817 55.9116H41.3259V47.8895C44.7734 47.6022 48.0442 46.1878 50.6077 43.8674V54.5856ZM40 4.19885C40 3.46957 40.5966 2.87288 41.3259 2.87288C42.0552 2.87288 42.6519 3.46957 42.6519 4.19885V9.50272C42.6519 10.232 42.0552 10.8287 41.3259 10.8287C40.5966 10.8287 40 10.232 40 9.50272V4.19885ZM25.4143 4.19885C25.4143 3.46957 26.011 2.87288 26.7403 2.87288C27.4696 2.87288 28.0663 3.46957 28.0663 4.19885V9.50272C28.0663 10.232 27.4696 10.8287 26.7403 10.8287C26.011 10.8287 25.4143 10.232 25.4143 9.50272V4.19885ZM10.8287 4.19885C10.8287 3.46957 11.4254 2.87288 12.1546 2.87288C12.8839 2.87288 13.4806 3.46957 13.4806 4.19885V9.50272C13.4806 10.232 12.8839 10.8287 12.1546 10.8287C11.4254 10.8287 10.8287 10.232 10.8287 9.50272V4.19885ZM2.87288 9.50272C2.87288 8.77343 3.46957 8.17675 4.19885 8.17675H8.17675V9.50272C8.17675 11.6906 9.9668 13.4806 12.1546 13.4806C14.3425 13.4806 16.1326 11.6906 16.1326 9.50272V8.17675H22.7624V9.50272C22.7624 11.6906 24.5524 13.4806 26.7403 13.4806C28.9281 13.4806 30.7182 11.6906 30.7182 9.50272V8.17675H37.348V9.50272C37.348 11.6906 39.1381 13.4806 41.3259 13.4806C43.5138 13.4806 45.3038 11.6906 45.3038 9.50272V8.17675H49.2817C50.011 8.17675 50.6077 8.77343 50.6077 9.50272V20.2209C47.6906 17.5911 43.9116 16.1326 40 16.1326H2.87288V9.50272ZM4.19885 55.9116C3.46957 55.9116 2.87288 55.3149 2.87288 54.5856V18.7845H31.2265C25.569 22.5193 22.9171 29.4364 24.5966 36C26.2762 42.5635 31.9337 47.337 38.6961 47.8895V55.9116H4.19885ZM26.7403 32.0442C26.7403 24.9723 32.2872 19.1602 39.337 18.8066C46.3867 18.453 52.4861 23.6906 53.1933 30.7182H50.5193C49.8121 25.1712 44.9281 21.1049 39.337 21.4585C33.7458 21.8121 29.3922 26.453 29.3922 32.0442C29.3922 37.6353 33.7458 42.2762 39.337 42.6298C44.9281 42.9834 49.8342 38.9171 50.5193 33.3701H53.1933C52.4861 40.3977 46.3867 45.6353 39.337 45.2817C32.2872 44.9281 26.7403 39.116 26.7403 32.0442ZM42.2762 33.3701C41.6795 34.4088 40.4419 34.9171 39.2928 34.6077C38.1436 34.2983 37.3259 33.2375 37.3259 32.0442C37.3259 30.8508 38.1215 29.79 39.2928 29.4806C40.4419 29.1712 41.6795 29.6795 42.2762 30.7182H40V33.3701H42.2762ZM40 26.7403C37.9668 26.7403 36.1325 27.8895 35.2265 29.7016C34.3204 31.5138 34.5414 33.6795 35.779 35.2928C37.0165 36.906 39.0497 37.6574 41.0386 37.2375C43.0276 36.8397 44.5966 35.337 45.1049 33.3701H47.8232C47.1381 37.4585 43.4254 40.3093 39.3149 39.9779C35.2044 39.6243 32.0221 36.1768 32.0221 32.0442C32.0221 27.9116 35.1823 24.464 39.3149 24.1105C43.4254 23.7569 47.1381 26.6298 47.8232 30.7182H45.1049C44.5082 28.3756 42.4088 26.7403 40 26.7403ZM63.8674 62.5414C63.8674 60.3535 65.6574 58.5635 67.8453 58.5635H69.1712V63.8674H63.8674V62.5414ZM77.127 73.1491C77.127 75.337 75.337 77.127 73.1491 77.127H67.8453C65.6574 77.127 63.8674 75.337 63.8674 73.1491V66.5193H77.127V73.1491ZM77.127 63.8674H71.8232V58.5635H73.1491C75.337 58.5635 77.127 60.3535 77.127 62.5414V63.8674Z" fill="black"/>
<path d="M12.1546 21.4364H6.85078C6.1215 21.4364 5.52481 22.0331 5.52481 22.7624V28.0662C5.52481 28.7955 6.1215 29.3922 6.85078 29.3922H12.1546C12.8839 29.3922 13.4806 28.7955 13.4806 28.0662V22.7624C13.4806 22.0331 12.8839 21.4364 12.1546 21.4364ZM10.8287 26.7403H8.17675V24.0884H10.8287V26.7403Z" fill="black"/>
<path d="M12.1546 45.3038H6.85078C6.1215 45.3038 5.52481 45.9005 5.52481 46.6298V51.9337C5.52481 52.6629 6.1215 53.2596 6.85078 53.2596H12.1546C12.8839 53.2596 13.4806 52.6629 13.4806 51.9337V46.6298C13.4806 45.9005 12.8839 45.3038 12.1546 45.3038ZM10.8287 50.6077H8.17675V47.9557H10.8287V50.6077Z" fill="black"/>
<path d="M12.1546 33.3701H6.85078C6.1215 33.3701 5.52481 33.9668 5.52481 34.6961V40C5.52481 40.7292 6.1215 41.3259 6.85078 41.3259H12.1546C12.8839 41.3259 13.4806 40.7292 13.4806 40V34.6961C13.4806 33.9668 12.8839 33.3701 12.1546 33.3701ZM10.8287 38.674H8.17675V36.0221H10.8287V38.674Z" fill="black"/>
<path d="M22.7624 33.3701H17.4585C16.7292 33.3701 16.1325 33.9668 16.1325 34.6961V40C16.1325 40.7292 16.7292 41.3259 17.4585 41.3259H22.7624C23.4917 41.3259 24.0884 40.7292 24.0884 40V34.6961C24.0884 33.9668 23.4917 33.3701 22.7624 33.3701ZM21.4364 38.674H18.7845V36.0221H21.4364V38.674Z" fill="black"/>
<path d="M17.4585 29.3922H22.7624C23.4917 29.3922 24.0884 28.7955 24.0884 28.0662V22.7624C24.0884 22.0331 23.4917 21.4364 22.7624 21.4364H17.4585C16.7292 21.4364 16.1325 22.0331 16.1325 22.7624V28.0662C16.1325 28.7955 16.7292 29.3922 17.4585 29.3922ZM18.7845 24.0884H21.4364V26.7403H18.7845V24.0884Z" fill="black"/>
<path d="M22.7624 45.304H17.4585C16.7292 45.304 16.1325 45.9007 16.1325 46.63V51.9338C16.1325 52.6631 16.7292 53.2598 17.4585 53.2598H22.7624C23.4917 53.2598 24.0884 52.6631 24.0884 51.9338V46.63C24.0884 45.9007 23.4917 45.304 22.7624 45.304ZM21.4364 50.6079H18.7845V47.9559H21.4364V50.6079Z" fill="black"/>
<path d="M70.4972 18.7846C74.2541 18.7846 77.6353 16.5304 79.0718 13.0608C80.5083 9.59121 79.7127 5.59121 77.0607 2.93928C74.4088 0.287347 70.4088 -0.508233 66.9392 0.928231C63.4696 2.3647 61.2154 5.74591 61.2154 9.50282C61.2154 14.6299 65.3701 18.7846 70.4972 18.7846ZM70.4972 2.87298C73.1712 2.87298 75.6022 4.48624 76.6188 6.96138C77.6353 9.43652 77.0828 12.2873 75.1823 14.1879C73.2817 16.0885 70.4309 16.6409 67.9558 15.6244C65.4806 14.6078 63.8674 12.1769 63.8674 9.50282C63.8674 5.83431 66.8287 2.87298 70.4972 2.87298Z" fill="black"/>
<path d="M70.4972 13.4806C72.1105 13.4806 73.5469 12.5082 74.1657 11.0275C74.7845 9.54686 74.4309 7.8231 73.3038 6.69603C72.1768 5.56896 70.453 5.21537 68.9723 5.83415C67.4917 6.45294 66.5193 7.8894 66.5193 9.50266C66.5193 11.6905 68.3093 13.4806 70.4972 13.4806ZM70.4972 8.17669C71.0276 8.17669 71.5138 8.50818 71.7127 8.99437C71.9116 9.48056 71.8011 10.0551 71.4254 10.4308C71.0497 10.8065 70.4751 10.917 69.9889 10.7181C69.5027 10.5192 69.1712 10.033 69.1712 9.50266C69.1712 8.77338 69.7679 8.17669 70.4972 8.17669Z" fill="black"/>
<path d="M24.0884 61.2154H21.4364V63.8674H24.0884V61.2154Z" fill="black"/>
<path d="M34.6961 61.2154H26.7403V63.8674H34.6961V61.2154Z" fill="black"/>
<path d="M24.0884 69.1712H21.4364V71.8232H24.0884V69.1712Z" fill="black"/>
<path d="M34.6961 69.1712H26.7403V71.8232H34.6961V69.1712Z" fill="black"/>
<path d="M24.0884 77.127H21.4364V79.779H24.0884V77.127Z" fill="black"/>
<path d="M34.6961 77.127H26.7403V79.779H34.6961V77.127Z" fill="black"/>
</svg>
