<svg width="84" height="81" viewBox="0 0 84 81" fill="none" xmlns="http://www.w3.org/2000/svg">
<path d="M80.0381 72.1613H79.1193C78.7037 71.5271 78.3537 70.8491 78.0694 70.1493C77.8069 69.5151 77.085 69.2308 76.4725 69.4932C75.8381 69.7556 75.5537 70.4774 75.8162 71.1116C75.9694 71.4834 76.1444 71.8333 76.3194 72.1832H28.0197C27.6478 72.1832 27.2978 72.2269 26.9478 72.3363C26.1822 71.0241 25.1322 68.5965 25.1322 65.0099C25.1322 64.485 25.1541 63.9383 25.1978 63.4353H48.7789C49.457 63.4353 50.0039 62.8885 50.0039 62.2105C50.0039 61.5326 49.457 60.9858 48.7789 60.9858H26.2478L29.1353 57.8584H76.2756C75.7725 58.8426 75.3787 59.8923 75.0944 60.9858H58.9289C58.2507 60.9858 57.7039 61.5326 57.7039 62.2105C57.7039 62.8885 58.2507 63.4353 58.9289 63.4353H74.6787C74.635 63.9383 74.6131 64.4413 74.5912 64.9443C74.5912 65.6222 75.1381 66.169 75.8162 66.169C76.4944 66.169 77.0412 65.6222 77.0412 64.9443C77.0412 62.3636 77.7631 59.9142 79.1193 57.8366H80.0381C82.2256 57.8366 83.9974 56.0651 83.9974 53.8781C83.9974 51.6911 82.2256 49.9197 80.0381 49.9197H64.6601L78.7475 35.8355C79.5568 35.0263 79.9943 33.9765 79.9943 32.8393C79.9943 31.7021 79.5568 30.6523 78.7475 29.8431L78.4412 29.5369C77.6319 28.7278 76.5819 28.2904 75.4444 28.2904C74.4162 28.2904 73.4319 28.6622 72.6663 29.3401L70.4788 27.1531L71.2225 26.4096C72.2288 25.4254 72.5131 23.9383 71.9881 22.6261L70.9819 20.1766C70.6319 19.3237 69.8882 18.7114 69.0132 18.5364L67.3069 16.8306C66.8257 16.3494 66.0382 16.3494 65.5569 16.8306C65.0757 17.3117 65.0757 18.099 65.5569 18.5801L66.3882 19.4112L47.0071 38.7879L41.2977 33.0799L60.7007 13.6813L61.4445 14.4467C61.6851 14.6873 61.9913 14.7967 62.3195 14.7967C62.6257 14.7967 62.9538 14.6873 63.1945 14.4467C63.6757 13.9656 63.6757 13.1783 63.1945 12.6971L61.5757 11.0788C61.4007 10.1821 60.7882 9.43854 59.9351 9.11049L57.4851 8.10447C56.1726 7.5796 54.707 7.8639 53.7008 8.86992L52.957 9.61349L50.7695 7.42651C51.4477 6.66106 51.8195 5.67692 51.8195 4.64903C51.8195 3.5118 51.382 2.46204 50.5727 1.65286L50.2664 1.34668C49.457 0.537495 48.4071 0.100098 47.2696 0.100098C46.1321 0.100098 45.0821 0.537495 44.2727 1.34668L28.9603 16.6556C28.1509 17.4648 27.7134 18.5145 27.7134 19.6518C27.7134 20.789 28.1509 21.8388 28.9603 22.6479L29.2666 22.9541C30.0759 23.7633 31.1259 24.2007 32.2634 24.2007C33.2915 24.2007 34.2759 23.8289 35.0415 23.1509L37.229 25.3379L36.4853 26.0815C35.5009 27.0657 35.1946 28.5528 35.7196 29.865L36.7259 32.3144C37.0759 33.1455 37.7978 33.7578 38.6727 33.9547L32.504 41.3029C30.9728 40.6687 29.1572 40.9749 27.9322 42.2215C27.1447 43.0088 26.7072 44.0585 26.7072 45.1958C26.7072 45.6988 26.7947 46.1799 26.9697 46.6392L24.1697 49.2198C23.6666 49.6791 23.6447 50.4664 24.1041 50.9476C24.3447 51.21 24.6728 51.3412 25.001 51.3412C25.3072 51.3412 25.5916 51.2319 25.8322 51.0132L28.4134 48.6293L31.454 51.6693L8.55107 76.4916C7.89482 77.1914 6.99796 77.6069 6.03546 77.6288C5.07297 77.6507 4.1761 77.2789 3.4761 76.6009C2.79798 75.923 2.42611 75.0044 2.44799 74.0421C2.46986 73.0799 2.86361 72.1832 3.58548 71.5271L21.5666 54.9497C22.0697 54.4905 22.0916 53.7032 21.6322 53.222C21.1729 52.719 20.3854 52.6971 19.9041 53.1564L1.92299 69.7338C0.719873 70.8491 0.0417524 72.3582 -0.0019973 73.9984C-0.0238722 75.6386 0.588624 77.1695 1.74799 78.3286C2.88548 79.4659 4.37297 80.0782 5.96984 80.0782C6.01359 80.0782 6.05734 80.0782 6.10109 80.0782C7.7417 80.0564 9.25107 79.3565 10.3667 78.1537L17.7166 70.193C18.3291 72.2488 19.1604 73.6704 19.6854 74.4139C20.2104 75.1575 21.0854 75.6168 22.026 75.6168H24.1041C24.0822 75.7917 24.0603 75.9667 24.0603 76.1416C24.0603 78.3286 25.8322 80.1001 28.0197 80.1001H80.0381C82.2256 80.1001 83.9974 78.3286 83.9974 76.1416C83.9974 73.9328 82.2256 72.1613 80.0381 72.1613ZM81.5475 53.8563C81.5475 54.6873 80.8693 55.3434 80.06 55.3434H31.4103L33.4665 53.1345C33.9259 53.3095 34.429 53.397 34.9103 53.397C35.8946 53.397 36.879 53.0471 37.6665 52.3691H80.06C80.8693 52.3691 81.5475 53.0471 81.5475 53.8563ZM44.4258 39.6627L37.2946 45.6332L34.4728 42.812L40.4446 35.6824L44.4258 39.6627ZM39.0446 49.9197C39.1759 49.1324 39.0884 48.345 38.7821 47.6015L46.1321 41.4342C46.3289 42.309 46.9414 43.0525 47.7727 43.3806L50.2227 44.3866C50.6602 44.5616 51.0977 44.649 51.5352 44.649C52.432 44.649 53.3289 44.2991 54.007 43.6212L54.7508 42.8776L56.9382 45.0646C55.757 46.4424 55.582 48.3888 56.457 49.9197H39.0446ZM75.4444 30.7398C75.9256 30.7398 76.3631 30.9148 76.6912 31.2647L76.9975 31.5708C77.3256 31.8989 77.5225 32.3582 77.5225 32.8174C77.5225 33.2767 77.3475 33.736 76.9975 34.064L61.6851 49.3729C61.357 49.701 60.8976 49.8978 60.4382 49.8978C59.957 49.8978 59.5195 49.7228 59.1914 49.3729L58.8851 49.0667C58.1851 48.3669 58.1851 47.2515 58.8851 46.5517L74.1975 31.2428C74.5256 30.9366 74.985 30.7398 75.4444 30.7398ZM70.9163 31.046L58.6664 43.2931L56.5007 41.128L68.7507 28.8809L70.9163 31.046ZM48.6258 40.6468L68.2694 21.0077C68.335 20.9421 68.4007 20.9202 68.4663 20.9202C68.4882 20.9202 68.51 20.9202 68.5319 20.9202C68.5975 20.9421 68.685 20.964 68.7288 21.0952L69.735 23.5446C69.8882 23.9383 69.8007 24.3538 69.5163 24.66L52.2789 41.8716C51.9945 42.1559 51.557 42.2433 51.1633 42.0903L48.7133 41.0842C48.6039 41.0405 48.5602 40.953 48.5383 40.8874C48.5383 40.8437 48.5383 40.7343 48.6258 40.6468ZM32.2634 21.7294C31.7822 21.7294 31.3447 21.5544 31.0165 21.2045L30.7103 20.8983C30.3822 20.5703 30.1853 20.111 30.1853 19.6518C30.1853 19.1925 30.3603 18.7332 30.7103 18.4052L46.0227 3.09627C46.3508 2.76822 46.8102 2.57139 47.2696 2.57139C47.7508 2.57139 48.1883 2.74635 48.5164 3.09627L48.8227 3.40245C49.1508 3.7305 49.3477 4.18976 49.3477 4.64903C49.3477 5.1083 49.1727 5.56757 48.8227 5.89561L33.5103 21.2045C33.1822 21.5544 32.7447 21.7294 32.2634 21.7294ZM36.7915 21.4232L49.0414 9.1761L51.207 11.3412L38.9571 23.5883L36.7915 21.4232ZM38.2134 27.8092L55.4289 10.5976C55.6258 10.4008 55.8883 10.2915 56.1508 10.2915C56.282 10.2915 56.4132 10.3133 56.5445 10.3789L58.9945 11.385C59.1039 11.4287 59.1476 11.5162 59.1695 11.5818C59.1914 11.6474 59.1695 11.7349 59.1039 11.8224L39.4602 31.4615C39.3727 31.549 39.2852 31.549 39.2196 31.5271C39.154 31.5052 39.0665 31.4834 39.0227 31.3521L38.0165 28.9027C37.8415 28.5528 37.929 28.1154 38.2134 27.8092ZM29.1572 45.1958C29.1572 44.7365 29.3322 44.2991 29.6603 43.9711C30.3384 43.2931 31.4322 43.2931 32.1322 43.9711L36.1353 47.9733C36.8134 48.6512 36.8134 49.7447 36.1353 50.4445C35.4571 51.1225 34.3415 51.1225 33.6634 50.4445L29.6603 46.4424C29.3322 46.0924 29.1572 45.655 29.1572 45.1958ZM21.7197 72.9705C21.1729 72.2051 20.2104 70.543 19.751 68.0061L22.7041 64.8131C22.7041 64.8787 22.7041 64.9443 22.7041 64.988C22.7041 68.7715 23.7322 71.5052 24.6072 73.1455H22.0479C21.8947 73.1455 21.7854 73.0799 21.7197 72.9705ZM80.0381 77.6069H28.0197C27.1884 77.6069 26.5322 76.929 26.5322 76.1198C26.5322 75.2887 27.2103 74.6326 28.0197 74.6326H80.0381C80.8693 74.6326 81.5256 75.3106 81.5256 76.1198C81.5475 76.9508 80.8693 77.6069 80.0381 77.6069Z" fill="black"/>
<path d="M34.429 66.5408C33.7508 66.5408 33.204 67.0875 33.204 67.7655C33.204 68.4435 33.7508 68.9902 34.429 68.9902H63.085C63.7631 68.9902 64.31 68.4435 64.31 67.7655C64.31 67.0875 63.7631 66.5408 63.085 66.5408H34.429Z" fill="black"/>
</svg>
