<svg width="88" height="85" viewBox="0 0 88 85" fill="none" xmlns="http://www.w3.org/2000/svg">
<path d="M85.9398 39.7399C84.6459 38.5448 82.8582 37.8211 81.0706 37.7201C79.0445 37.6191 77.1377 38.326 75.7246 39.7399L66.0541 49.1993C65.8669 48.8795 65.6455 48.5597 65.4072 48.2735C64.2154 46.8765 62.4788 46.1022 60.5038 46.1022H46.9686C44.4148 46.1022 41.9291 45.7824 39.5626 45.126C33.4164 43.4428 27.5426 44.6716 22.5712 48.6775C20.5451 50.3102 19.081 52.0775 18.1446 53.3735L15.7099 51.0508C15.3864 50.7478 14.9608 50.5626 14.5181 50.5626C14.5181 50.5626 14.5181 50.5626 14.5011 50.5626C14.0414 50.5626 13.5988 50.7478 13.2753 51.0844L1.47666 63.2032C1.15317 63.523 0.982918 63.9607 0.999943 64.4151C1.01697 64.8696 1.20425 65.2904 1.52773 65.6102L21.4986 84.4112C21.8221 84.731 22.2477 84.8824 22.6733 84.8824C23.116 84.8824 23.5586 84.7141 23.8992 84.3775L35.5956 72.5112C35.9191 72.1914 36.0894 71.7369 36.0894 71.2993C36.0723 70.8617 35.8851 70.424 35.5616 70.1042L34.5401 69.128L36.8725 68.8755C38.2856 68.7072 39.7158 68.623 41.1289 68.623H61.7297C65.0837 68.623 67.9269 67.8993 70.1743 66.4686C70.1913 66.4518 70.2083 66.4518 70.2254 66.4349C71.0426 65.8795 71.7747 65.223 72.4046 64.4824L86.2974 48.3409C88.698 45.5636 88.5447 42.1131 85.9398 39.7399ZM22.6222 80.8092L5.13712 64.331L14.5522 54.6527L31.9352 71.3329L22.6222 80.8092ZM83.7095 46.1359L69.8168 62.2775C69.3741 62.7824 68.8633 63.2369 68.3185 63.624C66.616 64.6844 64.4027 65.223 61.7297 65.223H41.1289C39.5796 65.223 38.0132 65.3072 36.481 65.4923L31.3563 66.0646L20.6303 55.7805C21.3794 54.6864 22.7414 52.9191 24.7334 51.3201C28.8536 47.9874 33.5356 47.0112 38.6432 48.4082C41.2992 49.132 44.0913 49.5023 46.9516 49.5023H60.4868C62.9215 49.5023 63.5684 51.5894 63.5684 52.8181C63.5684 53.7102 63.279 54.5686 62.7682 55.1577C62.2234 55.7973 61.4232 56.1339 60.4357 56.1339H48.6712C47.7177 56.1339 46.9516 56.8914 46.9516 57.8339C46.9516 58.7765 47.7177 59.5339 48.6712 59.5339H60.4528C62.4447 59.5339 64.1984 58.7597 65.3901 57.3795C66.3946 56.2181 66.9565 54.7032 67.0076 53.0706L78.1422 42.1636C79.7426 40.5815 82.2283 40.9854 83.6074 42.2478C84.3395 42.8874 85.3099 44.2676 83.7095 46.1359Z" fill="black"/>
<path d="M43.3252 57.3625C43.1039 56.4536 42.1845 55.8813 41.2652 56.1001C40.3458 56.319 39.7669 57.2279 39.9883 58.1368L40.0053 58.2041C40.1926 58.9784 40.8906 59.517 41.6738 59.517C41.81 59.517 41.9291 59.5001 42.0653 59.4665C42.9847 59.2477 43.5636 58.3388 43.3423 57.4298L43.3252 57.3625Z" fill="black"/>
<path d="M12.5602 35.8685H29.2451C30.1475 35.8685 30.9987 35.5823 31.6797 35.0774C32.3608 35.5655 33.195 35.8685 34.1144 35.8685H50.7993C51.7017 35.8685 52.5529 35.5823 53.234 35.0774C53.915 35.5655 54.7662 35.8685 55.6686 35.8685H72.3365C74.6179 35.8685 76.4737 34.0338 76.4737 31.7784V24.0863C76.4737 20.6358 74.5158 17.6397 71.5874 16.1586C73.0005 14.4754 73.8518 12.3041 73.8518 9.93083C73.8518 4.54469 69.4251 0.168457 63.977 0.168457C58.5289 0.168457 54.1023 4.54469 54.1023 9.93083C54.1023 12.2873 54.9535 14.4586 56.3666 16.1586C55.1068 16.7982 54.0171 17.7239 53.1999 18.8516C52.3827 17.7239 51.2931 16.7982 50.0332 16.1586C51.4463 14.4754 52.2976 12.3041 52.2976 9.93083C52.2976 4.54469 47.8709 0.168457 42.4228 0.168457C36.9747 0.168457 32.548 4.54469 32.548 9.93083C32.548 12.2873 33.3993 14.4586 34.8124 16.1586C33.5525 16.7982 32.4629 17.7239 31.6457 18.8516C30.8285 17.7239 29.7388 16.7982 28.479 16.1586C29.8921 14.4754 30.7433 12.3041 30.7433 9.93083C30.7433 4.54469 26.3167 0.168457 20.8686 0.168457C15.4204 0.168457 10.9938 4.54469 10.9938 9.93083C10.9938 12.2873 11.8451 14.4586 13.2582 16.1586C10.3298 17.6397 8.37192 20.6358 8.37192 24.0863V31.7784C8.42299 34.0338 10.2788 35.8685 12.5602 35.8685ZM63.994 3.55163C67.5524 3.55163 70.4467 6.41301 70.4467 9.93083C70.4467 13.4487 67.5524 16.31 63.994 16.31C60.4357 16.31 57.5414 13.4487 57.5414 9.93083C57.5414 6.41301 60.4357 3.55163 63.994 3.55163ZM59.5334 18.6328C60.8784 19.3061 62.3766 19.6764 63.977 19.6764C65.5774 19.6764 67.0927 19.2892 68.4206 18.6328C71.0766 19.0873 73.0345 21.3595 73.0345 24.0694V31.7615C73.0345 32.1487 72.7111 32.4685 72.3195 32.4685H55.6516C55.26 32.4685 54.9365 32.1487 54.9365 31.7615V24.0694C54.9365 21.3595 56.8774 19.0873 59.5334 18.6328ZM42.4398 3.55163C45.9981 3.55163 48.8925 6.41301 48.8925 9.93083C48.8925 13.4487 45.9981 16.31 42.4398 16.31C38.8815 16.31 35.9872 13.4487 35.9872 9.93083C36.0042 6.41301 38.8985 3.55163 42.4398 3.55163ZM37.9962 18.6328C39.3412 19.3061 40.8394 19.6764 42.4398 19.6764C44.0402 19.6764 45.5555 19.2892 46.8835 18.6328C49.5394 19.0873 51.4974 21.3595 51.4974 24.0694V31.7615C51.4974 32.1487 51.1739 32.4685 50.7823 32.4685H34.1144C33.7228 32.4685 33.3993 32.1487 33.3993 31.7615V24.0694C33.3823 21.3595 35.3402 19.0873 37.9962 18.6328ZM20.9026 3.55163C24.461 3.55163 27.3553 6.41301 27.3553 9.93083C27.3553 13.4487 24.461 16.31 20.9026 16.31C17.3443 16.31 14.45 13.4487 14.45 9.93083C14.45 6.41301 17.3443 3.55163 20.9026 3.55163ZM11.8451 24.0863C11.8451 21.3595 13.803 19.1041 16.459 18.6496C17.804 19.3229 19.3023 19.6932 20.9026 19.6932C22.503 19.6932 24.0183 19.3061 25.3463 18.6496C28.0022 19.1041 29.9602 21.3764 29.9602 24.0863V31.7784C29.9602 32.1655 29.6367 32.4853 29.2451 32.4853H12.5602C12.1686 32.4853 11.8451 32.1655 11.8451 31.7784V24.0863Z" fill="black"/>
</svg>
