<svg width="17" height="18" viewBox="0 0 17 18" fill="none" xmlns="http://www.w3.org/2000/svg">
<path d="M16.3551 16.0595C14.4156 16.0595 12.277 16.0595 11.6748 16.0595V14.9392H15.9805C15.6201 13.8517 15.2976 12.886 15.2976 12.886C14.9372 12.886 13.6711 12.886 12.0446 12.886C11.0678 13.8048 10.1668 14.6532 9.35593 15.7501L8.49289 16.9173L7.62985 15.7501C6.81423 14.6438 5.89428 13.7813 4.94589 12.886C3.06806 12.886 1.69763 12.886 1.69289 12.886C1.68815 12.9048 1.37043 13.861 1.01004 14.9392H5.3205V16.0595C4.49066 16.0595 2.38996 16.0595 0.640167 16.0595C0.303487 17.086 0.00948396 17.9767 0 18.0001H17C16.9905 17.9767 16.6965 17.086 16.3551 16.0595Z" fill="black"/>
<path d="M8.50232 15.1266C11.0725 11.6438 14.738 10.2984 14.738 6.16406C14.7333 2.62969 12.073 0 8.50232 0C4.93161 0 2.26662 2.62969 2.26662 6.16406C2.26662 10.2937 5.92743 11.6391 8.50232 15.1266ZM8.50232 4.71094C9.43649 4.71094 10.2047 5.46563 10.2047 6.38906C10.2047 7.3125 9.44124 8.07187 8.50232 8.07187C7.56341 8.07187 6.79995 7.31719 6.79995 6.38906C6.79995 5.46563 7.56341 4.71094 8.50232 4.71094Z" fill="black"/>
</svg>
