<svg width="19" height="14" viewBox="0 0 19 14" fill="none" xmlns="http://www.w3.org/2000/svg">
<path d="M9.46294 8.39282L11.3704 6.61949L18.0463 0.161538C17.8274 0.0610256 17.5862 0 17.3301 0H1.66997C1.41391 0 1.1727 0.0610256 0.953759 0.161538L9.46294 8.39282Z" fill="black"/>
<path d="M18.8331 13.0775C18.937 12.8657 19.0001 12.6324 19.0001 12.3847V1.61543C19.0001 1.36774 18.937 1.13441 18.8331 0.922612L12.5504 7.00005L18.8331 13.0775Z" fill="black"/>
<path d="M0.166992 0.922612C0.0630859 1.13441 0 1.36774 0 1.61543V12.3847C0 12.6324 0.0630859 12.8657 0.166992 13.0775L6.44961 7.00005L0.166992 0.922612Z" fill="black"/>
<path d="M11.7637 7.76107L9.8563 9.53441C9.74868 9.63851 9.60395 9.69236 9.46294 9.69236C9.32192 9.69236 9.1772 9.63851 9.06958 9.53441L7.23638 7.76107L0.953759 13.8385C1.1727 13.939 1.41391 14.0001 1.66997 14.0001H17.3301C17.5862 14.0001 17.8274 13.939 18.0463 13.8385L11.7637 7.76107Z" fill="black"/>
</svg>
