<svg width="17" height="18" viewBox="0 0 17 18" fill="none" xmlns="http://www.w3.org/2000/svg">
<path d="M7.03905 9.96102C5.41431 8.33628 5.05129 6.71597 4.96718 6.06518C4.94504 5.88367 5.00702 5.70659 5.13541 5.5782L6.45025 4.26778C6.64504 4.07299 6.67603 3.77195 6.53437 3.54174L4.44036 0.292256C4.28098 0.0354848 3.95338 -0.0574841 3.6789 0.0797557L0.327597 1.66023C0.11067 1.76648 -0.0177157 2.00111 0.00441975 2.2446C0.181503 3.91362 0.907545 8.02196 4.94504 12.0595C8.98254 16.097 13.0864 16.823 14.7599 17.0001C15.0034 17.0267 15.2336 16.8983 15.3443 16.6769L16.9247 13.3212C17.0575 13.0511 16.969 12.7235 16.7122 12.5642L13.4672 10.4746C13.237 10.3285 12.9359 10.3639 12.7411 10.5587L11.4219 11.8647C11.2935 11.9931 11.112 12.055 10.9349 12.0329C10.2841 11.9488 8.66379 11.5813 7.03905 9.96102Z" fill="black"/>
<path d="M13.4849 9.08433C13.1617 9.08433 12.9005 8.82313 12.9005 8.49996C12.8961 6.07391 10.9305 4.10386 8.50442 4.10386C8.18124 4.10386 7.92004 3.84266 7.92004 3.51949C7.92004 3.19631 8.18124 2.93511 8.50442 2.93511C11.5768 2.93954 14.0693 5.43199 14.0737 8.50438C14.0693 8.82313 13.8081 9.08433 13.4849 9.08433Z" fill="black"/>
<path d="M16.4156 9.08436C16.0924 9.08436 15.8312 8.82316 15.8312 8.49999C15.8224 4.45364 12.5463 1.1776 8.49998 1.17318C8.1768 1.17318 7.9156 0.911978 7.9156 0.588801C7.9156 0.261198 8.1768 0 8.49998 0C13.1927 0.00442708 16.9955 3.80729 17 8.49999C17 8.65493 16.938 8.80545 16.8273 8.91613C16.7211 9.02238 16.5705 9.08436 16.4156 9.08436Z" fill="black"/>
</svg>
