<svg width="34" height="34" viewBox="0 0 34 34" fill="none" xmlns="http://www.w3.org/2000/svg">
<path d="M26.4149 4.16146C26.4149 3.79844 26.1137 3.4974 25.7504 3.4974C25.387 3.4974 25.0858 3.79844 25.0858 4.16146C25.0858 4.52448 25.387 4.82552 25.7504 4.82552C26.1137 4.82552 26.4149 4.52448 26.4149 4.16146Z" fill="black"/>
<path d="M29.9948 4.16146C29.9948 3.79844 29.6935 3.4974 29.3302 3.4974C28.9669 3.4974 28.6656 3.79844 28.6656 4.16146C28.6656 4.52448 28.9669 4.82552 29.3302 4.82552C29.7024 4.82552 29.9948 4.52448 29.9948 4.16146Z" fill="black"/>
<path d="M22.8262 4.16146C22.8262 3.79844 22.5249 3.4974 22.1616 3.4974C21.7983 3.4974 21.497 3.79844 21.497 4.16146C21.497 4.52448 21.7983 4.82552 22.1616 4.82552C22.5338 4.82552 22.8262 4.52448 22.8262 4.16146Z" fill="black"/>
<path d="M4.00526 4.16146C4.00526 4.52448 4.30653 4.82552 4.66984 4.82552H14.6474C15.0107 4.82552 15.312 4.52448 15.312 4.16146C15.312 3.79844 15.0107 3.4974 14.6474 3.4974H4.66984C4.29767 3.4974 4.00526 3.78958 4.00526 4.16146Z" fill="black"/>
<path d="M31.8645 0H11.0852C10.7219 0 10.4206 0.301042 10.4206 0.664062C10.4206 1.02708 10.7219 1.32812 11.0852 1.32812H31.8645C32.3075 1.32812 32.6708 1.69115 32.6708 2.125V6.98594H1.32916V2.125C1.32916 1.68229 1.69247 1.32812 2.12666 1.32812H5.12171C5.48501 1.32812 5.78629 1.02708 5.78629 0.664062C5.78629 0.301042 5.48501 0 5.12171 0H2.12666C0.956998 0 0 0.95625 0 2.125V31.8661C0 33.0437 0.956998 34 2.12666 34H31.8645C33.043 34 34 33.0437 34 31.8661V2.125C34 0.95625 33.043 0 31.8645 0ZM31.8645 32.6719H2.12666C1.68361 32.6719 1.32916 32.3089 1.32916 31.8661V8.31406H32.6708V31.8661C32.6708 32.3089 32.3075 32.6719 31.8645 32.6719Z" fill="black"/>
<path d="M6.21171 25.4115C4.68761 25.4115 3.44705 26.651 3.44705 28.174C3.44705 29.6969 4.68761 30.9365 6.21171 30.9365C7.73582 30.9365 8.97637 29.6969 8.97637 28.174C8.97637 26.651 7.73582 25.4115 6.21171 25.4115ZM6.21171 29.6083C5.41422 29.6083 4.77622 28.962 4.77622 28.174C4.77622 27.3771 5.42308 26.7396 6.21171 26.7396C7.00035 26.7396 7.64721 27.3859 7.64721 28.174C7.64721 28.9708 7.00035 29.6083 6.21171 29.6083Z" fill="black"/>
<path d="M13.4069 25.4115C11.8827 25.4115 10.6422 26.651 10.6422 28.174C10.6422 29.6969 11.8827 30.9365 13.4069 30.9365C14.931 30.9365 16.1715 29.6969 16.1715 28.174C16.1715 26.651 14.931 25.4115 13.4069 25.4115ZM13.4069 29.6083C12.6182 29.6083 11.9714 28.962 11.9714 28.174C11.9714 27.3771 12.6182 26.7396 13.4069 26.7396C14.1955 26.7396 14.8424 27.3859 14.8424 28.174C14.8424 28.9708 14.1955 29.6083 13.4069 29.6083Z" fill="black"/>
<path d="M20.5932 25.4115C19.0691 25.4115 17.8286 26.651 17.8286 28.174C17.8286 29.6969 19.0691 30.9365 20.5932 30.9365C22.1173 30.9365 23.3579 29.6969 23.3579 28.174C23.3667 26.651 22.1262 25.4115 20.5932 25.4115ZM20.5932 29.6083C19.8046 29.6083 19.1577 28.962 19.1577 28.174C19.1577 27.3771 19.8046 26.7396 20.5932 26.7396C21.3907 26.7396 22.0287 27.3859 22.0287 28.174C22.0376 28.9708 21.3907 29.6083 20.5932 29.6083Z" fill="black"/>
<path d="M27.7883 25.4115C26.2642 25.4115 25.0237 26.651 25.0237 28.174C25.0237 29.6969 26.2642 30.9365 27.7883 30.9365C29.3125 30.9365 30.553 29.6969 30.553 28.174C30.553 26.651 29.3125 25.4115 27.7883 25.4115ZM27.7883 29.6083C26.9909 29.6083 26.3528 28.962 26.3528 28.174C26.3528 27.3771 26.9997 26.7396 27.7883 26.7396C28.577 26.7396 29.2238 27.3859 29.2238 28.174C29.2238 28.9708 28.5858 29.6083 27.7883 29.6083Z" fill="black"/>
<path d="M3.44692 22.1709C3.4735 22.5162 3.76592 22.7907 4.1115 22.7907H18.9893C19.3526 22.7907 19.6539 22.4897 19.6539 22.1267V10.8819C19.6539 10.5188 19.3526 10.2178 18.9893 10.2178H4.10264C3.73933 10.2178 3.43806 10.5188 3.43806 10.8819V22.1178C3.44692 22.1444 3.44692 22.1532 3.44692 22.1709ZM14.4613 21.4626L13.2207 19.5147L14.8777 16.9115L17.7753 21.4714H14.4613V21.4626ZM12.884 21.4626H5.31661L9.1003 15.5037L12.884 21.4626ZM18.3158 11.5459V19.8334L15.436 15.3001C15.3119 15.1053 15.0993 14.9902 14.8777 14.9902C14.6473 14.9902 14.4347 15.1053 14.3195 15.3001L12.4409 18.2662L9.66741 13.9011C9.54335 13.7063 9.33069 13.5912 9.10916 13.5912C8.87877 13.5912 8.66611 13.7063 8.55091 13.9011L4.78494 19.8334V11.5459H18.3158Z" fill="black"/>
<path d="M22.454 11.5459H29.8618C30.2251 11.5459 30.5264 11.2449 30.5264 10.8819C30.5264 10.5188 30.2251 10.2178 29.8618 10.2178H22.4451C22.0818 10.2178 21.7805 10.5188 21.7805 10.8819C21.7894 11.2537 22.0818 11.5459 22.454 11.5459Z" fill="black"/>
<path d="M22.454 15.2292H29.8618C30.2251 15.2292 30.5264 14.9281 30.5264 14.5651C30.5264 14.2021 30.2251 13.901 29.8618 13.901H22.4451C22.0818 13.901 21.7805 14.2021 21.7805 14.5651C21.7894 14.9281 22.0818 15.2292 22.454 15.2292Z" fill="black"/>
<path d="M22.454 18.9036H29.8618C30.2251 18.9036 30.5264 18.6026 30.5264 18.2396C30.5264 17.8766 30.2251 17.5755 29.8618 17.5755H22.4451C22.0818 17.5755 21.7805 17.8766 21.7805 18.2396C21.7894 18.6115 22.0818 18.9036 22.454 18.9036Z" fill="black"/>
<path d="M22.454 22.5869H29.8618C30.2251 22.5869 30.5264 22.2859 30.5264 21.9228C30.5264 21.5598 30.2251 21.2588 29.8618 21.2588H22.4451C22.0818 21.2588 21.7805 21.5598 21.7805 21.9228C21.7894 22.2859 22.0818 22.5869 22.454 22.5869Z" fill="black"/>
<path d="M8.1079 1.32812C8.48007 1.32812 8.77249 1.02708 8.77249 0.664062C8.77249 0.301042 8.47121 0 8.1079 0C7.73573 0 7.44331 0.301042 7.44331 0.664062C7.44331 1.02708 7.73573 1.32812 8.1079 1.32812Z" fill="black"/>
</svg>
