<svg width="32" height="42" viewBox="0 0 32 42" fill="none" xmlns="http://www.w3.org/2000/svg">
<path d="M28.5923 34.754C28.3437 34.5378 27.9589 34.5618 27.7424 34.8101L26.3553 36.4036L25.9383 35.8911C25.7299 35.6349 25.353 35.5949 25.0964 35.8031C24.8399 36.0113 24.7998 36.3876 25.0082 36.6439L25.8742 37.7169C26.1067 38.0052 26.5477 38.0132 26.7963 37.7329L28.6564 35.6029C28.8649 35.3466 28.8409 34.9702 28.5923 34.754Z" fill="black"/>
<path d="M21.1275 11.9158H9.8862C9.55746 11.9158 9.28485 12.1881 9.28485 12.5164C9.28485 12.8447 9.55746 13.117 9.8862 13.117H21.1275C21.4563 13.117 21.7289 12.8447 21.7289 12.5164C21.7289 12.1881 21.4563 11.9158 21.1275 11.9158Z" fill="black"/>
<path d="M21.1275 14.7986H9.8862C9.55746 14.7986 9.28485 15.0709 9.28485 15.3992C9.28485 15.7275 9.55746 15.9998 9.8862 15.9998H21.1275C21.4563 15.9998 21.7289 15.7275 21.7289 15.3992C21.7289 15.0709 21.4563 14.7986 21.1275 14.7986Z" fill="black"/>
<path d="M21.1275 20.5642H9.8862C9.55746 20.5642 9.28485 20.8365 9.28485 21.1648C9.28485 21.4931 9.55746 21.7654 9.8862 21.7654H21.1275C21.4563 21.7654 21.7289 21.4931 21.7289 21.1648C21.7289 20.8285 21.4563 20.5642 21.1275 20.5642Z" fill="black"/>
<path d="M21.1275 17.6814H9.8862C9.55746 17.6814 9.28485 17.9537 9.28485 18.282C9.28485 18.6103 9.55746 18.8826 9.8862 18.8826H21.1275C21.4563 18.8826 21.7289 18.6103 21.7289 18.282C21.7289 17.9537 21.4563 17.6814 21.1275 17.6814Z" fill="black"/>
<path d="M21.1275 23.447H9.8862C9.55746 23.447 9.28485 23.7193 9.28485 24.0476C9.28485 24.3759 9.55746 24.6482 9.8862 24.6482H21.1275C21.4563 24.6482 21.7289 24.3759 21.7289 24.0476C21.7289 23.7113 21.4563 23.447 21.1275 23.447Z" fill="black"/>
<path d="M21.1275 29.2048H9.8862C9.55746 29.2048 9.28485 29.477 9.28485 29.8054C9.28485 30.1337 9.55746 30.4059 9.8862 30.4059H21.1275C21.4563 30.4059 21.7289 30.1337 21.7289 29.8054C21.7289 29.477 21.4563 29.2048 21.1275 29.2048Z" fill="black"/>
<path d="M21.1275 26.3299H9.8862C9.55746 26.3299 9.28485 26.6021 9.28485 26.9304C9.28485 27.2588 9.55746 27.531 9.8862 27.531H21.1275C21.4563 27.531 21.7289 27.2588 21.7289 26.9304C21.7289 26.5941 21.4563 26.3299 21.1275 26.3299Z" fill="black"/>
<path d="M7.07178 13.021C7.30431 13.1812 7.62503 13.1492 7.8335 12.949C7.94575 12.8369 8.00989 12.6767 8.00989 12.5246C8.00989 12.2443 7.81746 11.996 7.52881 11.94C7.32034 11.8999 7.11187 11.972 6.98359 12.1001C6.8553 12.2363 6.78314 12.4285 6.81521 12.6447C6.84728 12.8048 6.9435 12.933 7.07178 13.021Z" fill="black"/>
<path d="M6.90342 15.7356C7.17603 16.136 7.7854 16.0719 7.96179 15.6315C7.99387 15.5514 8.0099 15.4713 8.0099 15.3992C8.0099 15.2071 7.9217 15.0229 7.74531 14.9028C7.68116 14.8627 7.60098 14.8307 7.52882 14.8147C7.33639 14.7746 7.1199 14.8387 6.9836 14.9748C6.85531 15.103 6.77513 15.3032 6.81522 15.5194C6.82324 15.5594 6.86333 15.6715 6.90342 15.7356Z" fill="black"/>
<path d="M7.16809 21.7174C7.24025 21.7494 7.32043 21.7654 7.40061 21.7654C7.48079 21.7654 7.56097 21.7494 7.63314 21.7174C7.71332 21.6854 7.77746 21.6373 7.82557 21.5893C7.96188 21.4531 8.03404 21.2529 7.98593 21.0447C7.9699 20.9807 7.93782 20.8926 7.89773 20.8285C7.67323 20.5002 7.23223 20.4842 6.97565 20.7404C6.91953 20.7965 6.87944 20.8605 6.84736 20.9326C6.81529 21.0047 6.79926 21.0768 6.79926 21.1648C6.79926 21.325 6.8634 21.4772 6.97565 21.5893C7.03178 21.6373 7.08791 21.6854 7.16809 21.7174Z" fill="black"/>
<path d="M7.07181 17.7854C6.94353 17.8735 6.84731 18.0017 6.81524 18.1698C6.77515 18.386 6.84731 18.5782 6.98362 18.7144C7.08785 18.8185 7.24821 18.8905 7.40857 18.8905C7.84155 18.8905 8.1302 18.4501 7.96182 18.0577C7.81749 17.7054 7.3765 17.5772 7.07181 17.7854Z" fill="black"/>
<path d="M6.81524 23.9277C6.77515 24.1359 6.84731 24.3361 6.98362 24.4722C7.21614 24.7045 7.60101 24.7045 7.83353 24.4722C8.06605 24.24 8.07407 23.8636 7.83353 23.6234C7.48875 23.2871 6.91145 23.4552 6.81524 23.9277Z" fill="black"/>
<path d="M6.97574 29.3807C6.74321 29.6209 6.74321 29.9973 6.97574 30.2295C7.20024 30.4617 7.59313 30.4617 7.82565 30.2295C8.0261 30.0293 8.05817 29.709 7.89781 29.4688C7.68133 29.1564 7.23232 29.1244 6.97574 29.3807Z" fill="black"/>
<path d="M6.79926 26.9305C6.79926 27.0906 6.8634 27.2428 6.97565 27.3549C7.07989 27.459 7.23223 27.5311 7.40061 27.5311C7.8817 27.5311 8.17035 27.0025 7.89773 26.5941C7.56097 26.0897 6.79926 26.3539 6.79926 26.9305Z" fill="black"/>
<path d="M30.7492 36.0752C30.5648 36.2674 29.771 36.7959 29.9474 37.8449L30.0356 38.3494C30.0115 38.3494 29.9875 38.3574 29.9554 38.3654C29.6828 38.4135 28.7447 38.3734 28.2716 39.3264L28.0471 39.7908C28.0231 39.7748 27.999 39.7668 27.9749 39.7588C27.9509 39.7508 27.9028 39.7188 27.8627 39.6947C26.6359 38.982 26.0747 39.5746 25.5936 39.7828C25.3931 39.5586 25.337 38.5576 23.9178 38.3814C23.7093 38.3574 23.8537 38.3814 23.6131 38.3414C23.6211 38.3174 23.6211 38.2934 23.6211 38.2613C23.6532 37.9971 23.982 37.1082 23.2202 36.3715L22.8434 36.0111L23.2202 35.6428C23.8537 35.0262 23.7334 34.4176 23.6051 33.6809L24.1183 33.6088C25.0484 33.4727 25.313 32.8 25.5936 32.2395L26.0506 32.4797C26.9887 32.9762 27.7344 32.3836 27.983 32.2715C28.007 32.2635 28.0311 32.2555 28.0471 32.2395L28.2796 32.7039C28.6966 33.5527 29.4342 33.5928 30.0356 33.6809C30.0276 33.7049 30.0276 33.7289 30.0276 33.7609C30.0276 33.785 30.0115 33.841 30.0035 33.8811C29.9233 34.2494 29.763 35.0102 30.4285 35.6508L30.7973 36.0111C30.7732 36.0432 30.7572 36.0592 30.7492 36.0752ZM22.5788 33.0803C22.1218 33.841 22.7793 34.4176 22.3784 34.802L22.0015 35.1703C21.5846 35.5707 21.5525 36.1553 21.769 36.5797C2.49361 36.5797 3.70433 36.6117 3.56803 36.5156C3.47181 36.4516 3.40767 36.3395 3.40767 36.2193C3.4237 4.29218 3.31947 5.19707 3.60812 5.03691C3.78452 4.94082 3.63217 5.0209 9.54147 4.99688V5.81367C9.54147 6.72656 10.2791 7.46328 11.1932 7.46328H17.319C18.233 7.46328 18.9707 6.72656 18.9707 5.81367V4.99688H24.7357C24.9281 4.99688 25.0965 5.16504 25.0965 5.35723V31.1584C24.3107 31.5107 24.4791 32.3596 23.9419 32.4316C23.5811 32.5197 22.9637 32.4396 22.5788 33.0803ZM10.7442 4.99688H17.776V5.81367C17.776 6.06191 17.5755 6.26211 17.327 6.26211H11.2012C10.9526 6.26211 10.7522 6.06191 10.7522 5.81367V4.99688H10.7442ZM31.6392 35.1623L31.2623 34.7939C30.8614 34.4016 31.575 33.7609 31.0058 32.9842C30.8213 32.7279 30.5568 32.5678 30.2521 32.5117C29.9153 32.4316 29.5224 32.5117 29.354 32.1834C29.1696 31.8871 29.0894 31.3906 28.5282 31.1504V13.9096C28.5282 13.5812 28.2556 13.309 27.9268 13.309C27.5981 13.309 27.3255 13.5812 27.3255 13.9096V31.2705C27.0529 31.4227 26.8524 31.5588 26.6119 31.4307L26.2992 31.2705V5.35723C26.2992 4.50039 25.6016 3.7957 24.7357 3.7957H20.1654C20.2375 3.49941 20.1974 3.35527 20.2055 2.81875H25.2809C26.4034 2.81875 27.3175 3.73164 27.3175 4.85273V11.1309C27.3175 11.4592 27.5901 11.7314 27.9188 11.7314C28.2476 11.7314 28.5202 11.4592 28.5202 11.1309V4.85273C28.5202 3.06699 27.0689 1.61758 25.2809 1.61758H20.2055V1.56152C20.2055 0.704688 19.5079 0 18.6419 0H14.2721C13.9434 0 13.6708 0.272266 13.6708 0.600586C13.6708 0.928906 13.9434 1.20117 14.2721 1.20117H18.6419C18.8344 1.20117 19.0028 1.36934 19.0028 1.56152V3.43535C19.0028 3.62754 18.8344 3.7957 18.6419 3.7957H9.87021C9.67777 3.7957 9.5094 3.62754 9.5094 3.43535V1.56152C9.5094 1.36934 9.67777 1.20117 9.87021 1.20117H11.4738C11.8026 1.20117 12.0752 0.928906 12.0752 0.600586C12.0752 0.272266 11.8026 0 11.4738 0H9.87021C9.01228 0 8.30669 0.69668 8.30669 1.56152V1.61758H3.23929C1.45127 1.61758 0 3.06699 0 4.85273V36.7318C0 38.5176 1.45127 39.967 3.23929 39.967H5.99749C6.32623 39.967 6.59885 39.6947 6.59885 39.3664C6.59885 39.0381 6.32623 38.7658 5.99749 38.7658H3.23929C2.11676 38.7658 1.20271 37.8529 1.20271 36.7318V4.85273C1.20271 3.73164 2.11676 2.81875 3.23929 2.81875H8.30669C8.31471 3.35527 8.28264 3.49941 8.34678 3.7957H3.7765C2.91857 3.7957 2.21298 4.49238 2.21298 5.35723C2.21298 37.6688 2.20496 36.2193 2.221 36.3715C2.30118 37.1643 2.97469 37.7729 3.7765 37.7729H22.4906C22.4265 38.1092 22.3383 38.3975 22.4826 38.7738H8.80381C8.47507 38.7738 8.20246 39.0461 8.20246 39.3744C8.20246 39.7027 8.47507 39.975 8.80381 39.975H24.3428C24.431 40.0951 24.6475 41 25.5936 41C25.9704 41 26.1869 40.8398 26.6039 40.6236C27.101 40.3594 27.4939 41.2402 28.4079 40.9439C29.0734 40.7277 29.1777 40.1271 29.346 39.8629C29.5946 39.3504 30.4285 39.8389 30.9977 39.0621C31.4067 38.5016 31.1421 37.949 31.126 37.6527C31.0619 37.2924 31.4227 37.1322 31.6632 36.86C32.1203 36.3795 32.1123 35.6268 31.6392 35.1623Z" fill="black"/>
</svg>
