<svg width="45" height="46" viewBox="0 0 45 46" fill="none" xmlns="http://www.w3.org/2000/svg">
<path d="M41.599 26.3597L36.41 24.897L34.5095 22.9842V20.2964C36.3975 18.8837 37.5103 16.6584 37.5103 14.2955V14.0705C39.1733 14.0705 40.5112 12.7328 40.5112 11.0701C40.5112 9.40735 39.1733 8.06966 37.5103 8.06966V5.81935C37.5103 3.75657 36.4726 1.88131 34.8596 1.03119C34.8346 1.01869 34.8221 1.00619 34.7971 1.00619C31.7338 -0.268989 28.2828 -0.268989 25.2195 1.00619C25.1945 1.01869 25.1819 1.01869 25.1569 1.03119C23.544 1.88131 22.5062 3.75657 22.5062 5.81935V8.06966C20.8432 8.06966 19.5054 9.40735 19.5054 11.0701C19.5054 12.7328 20.8432 14.0705 22.5062 14.0705V14.2955C22.5062 15.9708 23.0689 17.596 24.1067 18.9212C23.2814 19.1462 22.4062 19.0337 21.656 18.6336C20.3181 17.9085 18.7177 17.8585 17.3423 18.4836L17.2298 18.5336C17.2548 18.3711 17.2673 18.2086 17.2673 18.046C17.2673 16.3833 15.9294 15.0456 14.2664 15.0456C12.6035 15.0456 11.2656 16.3833 11.2656 18.046C11.2656 18.2086 11.2781 18.3711 11.3031 18.5336L11.1906 18.4836C9.8027 17.8585 8.20226 17.9085 6.8769 18.6336C6.08918 19.0587 5.16393 19.1462 4.30119 18.8837L3.9886 18.7836L3.55098 20.2213L3.86357 20.3214C4.25117 20.4339 4.65128 20.5089 5.0639 20.5214L0.0750207 30.4603C0.0250069 30.5603 0 30.6853 0 30.7978C0 32.8731 1.67546 34.5483 3.75103 34.5483H8.25228C10.3278 34.5483 12.0033 32.8731 12.0033 30.7978C12.0033 30.6853 11.9783 30.5728 11.9283 30.4603L6.82688 20.2714C7.08946 20.1838 7.33952 20.0713 7.57709 19.9463C8.50235 19.4587 9.60265 19.4212 10.5529 19.8463L12.0033 20.5089V37.6238C10.5029 37.9238 9.34008 39.1115 9.065 40.6117C7.28951 40.9492 6.00166 42.4994 6.00166 44.2997C6.00166 44.7122 6.33925 45.0498 6.75186 45.0498H16.5046V30.7228C16.5046 29.3476 17.4423 28.1474 18.7802 27.8099L20.9058 27.2848L20.2681 33.7232C20.2431 33.9357 20.3181 34.1483 20.4556 34.2983C20.5932 34.4608 20.8057 34.5483 21.0058 34.5483H23.0439L22.5312 36.6111C22.4562 36.9237 22.5812 37.2362 22.8438 37.4112L29.2581 41.6868V45.0498H30.7585V41.6993L37.1728 37.4237C37.4353 37.2487 37.5604 36.9237 37.4853 36.6236L36.9727 34.5608H39.0108C39.2233 34.5608 39.4234 34.4733 39.5609 34.3108C39.6985 34.1483 39.7735 33.9482 39.7485 33.7357L39.0983 27.2973L41.2239 27.8349C42.5617 28.1724 43.4995 29.3726 43.4995 30.7478V45.0498H44.9999V30.7228C45.0124 28.66 43.612 26.8598 41.599 26.3597ZM8.25228 33.0481H3.75103C2.80077 33.0481 1.95054 32.448 1.62545 31.5479H10.3779C10.0528 32.448 9.20254 33.0481 8.25228 33.0481ZM1.96304 30.0477L6.00166 21.9716L10.0403 30.0477H1.96304ZM20.5807 25.8221L22.5062 21.9841L23.8441 24.6595L23.6065 24.897L20.5807 25.8221ZM29.2581 29.0726L30.0083 28.1974L30.7585 29.0726V37.2237L30.0083 39.199L29.2581 37.2237V29.0726ZM27.7577 33.2857L27.1075 31.5854L27.7577 30.8228V33.2857ZM32.2589 33.2857V30.8228L32.9091 31.5854L32.2589 33.2857ZM26.4948 29.9852L24.8694 25.7346L26.2447 24.3594L28.9705 27.0848L26.4948 29.9852ZM33.5217 29.9852L31.0336 27.0848L33.7593 24.3594L35.1347 25.7346L33.5217 29.9852ZM33.0091 22.9842L30.0083 25.9846L27.0075 22.9842V21.1715C28.9205 22.0091 31.0961 22.0091 33.0091 21.1715V22.9842ZM25.507 20.2964V22.9842L24.9569 23.5343L23.4565 20.5339C23.8691 20.5214 24.2692 20.4464 24.6568 20.3339L25.307 20.1463C25.3695 20.1963 25.432 20.2463 25.507 20.2964ZM39.0108 11.0701C39.0108 11.8952 38.3356 12.5703 37.5103 12.5703V9.56987C38.3356 9.56987 39.0108 10.245 39.0108 11.0701ZM24.0066 5.81935C24.0066 4.31915 24.7193 2.96896 25.8321 2.36888C28.5079 1.26872 31.5212 1.26872 34.1969 2.36888C35.3097 2.96896 36.0224 4.31915 36.0224 5.81935V6.49445C35.5348 5.70684 35.0972 4.86922 34.7346 4.0191C34.572 3.65655 34.1594 3.46903 33.7843 3.60655C31.3587 4.50667 28.6829 4.50667 26.2572 3.60655C25.8821 3.46903 25.457 3.64405 25.307 4.0191C24.9444 4.88172 24.5068 5.70684 24.0191 6.49445V5.81935H24.0066ZM21.0058 11.0701C21.0058 10.245 21.681 9.56987 22.5062 9.56987V12.5703C21.681 12.5703 21.0058 11.8952 21.0058 11.0701ZM24.0066 9.0823C24.9569 7.90714 25.7571 6.61946 26.3948 5.24427C28.7579 5.96937 31.2711 5.96937 33.6343 5.24427C34.272 6.61946 35.0722 7.90714 36.0224 9.0823V14.2955C36.0224 17.6085 33.3342 20.2964 30.0208 20.2964C26.7074 20.2964 24.0191 17.6085 24.0191 14.2955L24.0066 9.0823ZM14.2539 16.5458C15.0792 16.5458 15.7543 17.2209 15.7543 18.046C15.7543 18.4711 15.5668 18.8712 15.2542 19.1587C15.0917 19.2962 15.0041 19.5087 15.0041 19.7213V37.5487H13.5037V19.7088C13.5037 19.4962 13.4162 19.2962 13.2537 19.1462C12.9286 18.8712 12.7535 18.4586 12.7535 18.0335C12.7535 17.2209 13.4287 16.5458 14.2539 16.5458ZM11.1656 39.7115C11.5907 39.2865 12.1659 39.049 12.7535 39.049H15.0041V40.5492H10.6279C10.7405 40.2366 10.928 39.9491 11.1656 39.7115ZM7.6271 43.5496C7.95219 42.6495 8.80243 42.0494 9.75269 42.0494H15.0041V43.5496H7.6271ZM16.5046 27.3723V20.5089L17.955 19.8463C18.3926 19.6463 18.8677 19.5463 19.3428 19.5463C19.893 19.5463 20.4431 19.6838 20.9308 19.9463C21.1683 20.0713 21.4184 20.1838 21.681 20.2714L18.6677 26.2972L18.4176 26.3597C17.7049 26.5347 17.0547 26.8848 16.5046 27.3723ZM24.1067 36.4736L24.7318 33.9858C24.7818 33.7607 24.7318 33.5232 24.5943 33.3482C24.4567 33.1606 24.2317 33.0606 24.0066 33.0606H21.831L22.4437 26.8723L23.5565 26.4972L28.4704 39.3865L24.1067 36.4736ZM36.0099 33.0481C35.7849 33.0481 35.5598 33.1606 35.4223 33.3357C35.2847 33.5232 35.2347 33.7607 35.2847 33.9733L35.9099 36.4611L31.5462 39.3615L36.4601 26.4722L37.5729 26.8473L38.198 33.0356H36.0099V33.0481Z" fill="black"/>
<path d="M26.6324 11.2951C27.0826 11.2951 27.4952 11.0201 27.6702 10.595C27.8453 10.1699 27.7453 9.69487 27.4202 9.36982C27.0951 9.04478 26.6199 8.95726 26.1948 9.11979C25.7697 9.29481 25.4946 9.70737 25.4946 10.1574C25.5071 10.795 26.0073 11.2951 26.6324 11.2951Z" fill="black"/>
<path d="M33.3842 11.2951C33.8343 11.2951 34.2469 11.0201 34.4219 10.595C34.597 10.1699 34.497 9.69487 34.1719 9.36982C33.8468 9.04478 33.3717 8.95726 32.9465 9.11979C32.5214 9.29481 32.2463 9.70737 32.2463 10.1574C32.2588 10.795 32.759 11.2951 33.3842 11.2951Z" fill="black"/>
<path d="M27.7576 15.7957H29.158C30.4583 15.7957 31.6962 15.4957 32.6464 14.9456L31.8962 13.6454C31.196 14.058 30.1957 14.2955 29.1705 14.2955H27.7576V15.7957Z" fill="black"/>
<path d="M27.7577 42.0494H26.2573V43.5496H27.7577V42.0494Z" fill="black"/>
<path d="M21.756 38.2989H20.2556V45.0498H21.756V38.2989Z" fill="black"/>
<path d="M39.7609 38.2989H38.2605V45.0498H39.7609V38.2989Z" fill="black"/>
</svg>
