<svg width="38" height="36" viewBox="0 0 38 36" fill="none" xmlns="http://www.w3.org/2000/svg">
<path d="M37.713 2.27376C37.525 1.82695 37.2578 1.42979 36.9214 1.0922C36.5849 0.75461 36.1792 0.476596 35.7438 0.297872C35.2885 0.0992908 34.8036 0.00992908 34.299 0.00992908H22.325C21.9193 0.00992908 21.5828 0.347518 21.5828 0.75461C21.5828 1.1617 21.9193 1.49929 22.325 1.49929H34.2891C35.5161 1.49929 36.5156 2.50213 36.5156 3.73333V20.8511H8.16406V1.48936H15.6453C16.051 1.48936 16.3875 1.15177 16.3875 0.744681C16.3875 0.337589 16.0609 0 15.6453 0H3.71094C3.20625 0 2.72135 0.0992908 2.26615 0.287943C1.82083 0.476596 1.425 0.744681 1.08854 1.08227C0.742188 1.41986 0.475 1.81702 0.296875 2.26383C0.0989583 2.7305 0 3.21702 0 3.7234V23.8298C0 25.8851 1.6625 27.5532 3.71094 27.5532H14.9229V30.1645H13.8047C11.7562 30.1645 10.0938 31.8326 10.0938 33.8879V34.2652C10.0938 34.6723 10.4302 35.0099 10.8359 35.0099H27.1641C27.5698 35.0099 27.9062 34.6723 27.9062 34.2652V33.8879C27.9062 31.8326 26.2438 30.1645 24.1953 30.1645H23.0771V27.5532H34.2891C36.3375 27.5532 38 25.8851 38 23.8298V3.7234C38 3.21702 37.901 2.7305 37.713 2.27376ZM1.48438 7.89362H6.67969V20.8511H1.48438V7.89362ZM3.71094 1.48936H6.67969V6.40426H1.48438V3.7234C1.48438 2.4922 2.48385 1.48936 3.71094 1.48936ZM22.3448 31.6539H24.2052C25.3036 31.6539 26.224 32.4582 26.4021 33.5206H11.6078C11.7859 32.4681 12.7062 31.6539 13.8047 31.6539H15.6651C16.0708 31.6539 16.4073 31.3163 16.4073 30.9092V27.5532H21.6026V30.9092C21.6026 31.3163 21.9292 31.6539 22.3448 31.6539ZM36.5156 23.8298C36.5156 25.061 35.5161 26.0638 34.2891 26.0638H3.71094C2.48385 26.0638 1.48438 25.061 1.48438 23.8298V22.3404H36.5156V23.8298Z" fill="black"/>
<path d="M18.9901 1.48936C19.3958 1.48936 19.7323 1.15177 19.7323 0.744681C19.7323 0.337589 19.3958 0 18.9901 0C18.5843 0 18.2479 0.337589 18.2479 0.744681C18.2479 1.15177 18.5843 1.48936 18.9901 1.48936Z" fill="black"/>
<path d="M26.6297 14.6058L27.362 10.5448L28.5693 14.6356C28.5693 14.6456 28.5792 14.6555 28.5792 14.6654C28.6979 15.0328 29.0443 15.2711 29.4302 15.2711H29.4401C29.826 15.2711 30.1625 15.0229 30.2812 14.6555C30.2812 14.6456 30.2911 14.6356 30.2911 14.6257L31.4589 10.5349L32.2406 14.6158C32.3198 15.0229 32.7057 15.281 33.1115 15.2115C33.5172 15.1321 33.7745 14.7448 33.7052 14.3378L32.4583 7.80442C32.3792 7.40726 32.0427 7.10938 31.637 7.08953C31.2312 7.06967 30.8651 7.31789 30.7365 7.70513C30.7365 7.71506 29.4401 12.2526 29.4401 12.2526C29.4401 12.2526 28.1042 7.70513 28.0943 7.6952C27.9656 7.30797 27.5896 7.05974 27.1838 7.08953C26.7781 7.11931 26.4417 7.41719 26.3625 7.81435L25.1849 14.3477C25.1156 14.7548 25.3828 15.142 25.7786 15.2115C26.1745 15.2711 26.5604 15.003 26.6297 14.6058Z" fill="black"/>
<path d="M10.6875 11.1704C10.6875 13.4243 12.449 15.2711 14.6161 15.2711C15.487 15.2711 16.2688 14.9732 16.8724 14.4073C16.9911 14.298 17.1 14.1789 17.2089 14.0498C17.4661 13.7321 17.4167 13.2555 17.0901 13.0073C16.7734 12.7491 16.2984 12.7987 16.051 13.1264C15.9917 13.1959 15.9323 13.2654 15.863 13.325C15.5365 13.6328 15.1109 13.7917 14.6161 13.7917C13.2703 13.7917 12.1719 12.62 12.1719 11.1803C12.1719 9.74059 13.2703 8.57889 14.6161 8.57889C15.101 8.57889 15.5661 8.72782 15.9719 9.01577C16.3083 9.25407 16.7734 9.17463 17.0109 8.83704C17.2484 8.49946 17.1693 8.03279 16.8328 7.79449C16.1797 7.32782 15.4177 7.08953 14.626 7.08953C12.449 7.0796 10.6875 8.91648 10.6875 11.1704Z" fill="black"/>
<path d="M23.6807 9.53174C23.6807 8.20124 22.5427 7.06932 21.1969 7.06932H19.5937C19.188 7.06932 18.8516 7.40691 18.8516 7.81401V14.5161C18.8516 14.9232 19.188 15.2608 19.5937 15.2608C19.9995 15.2608 20.3359 14.9232 20.3359 14.5161V12.9672L22.4042 15.0523C22.5526 15.2012 22.7406 15.2707 22.9286 15.2707C23.1167 15.2707 23.3047 15.2012 23.4531 15.0523C23.7401 14.7644 23.7401 14.2878 23.4531 13.9998L21.375 11.9147C22.6614 11.8154 23.6807 10.7828 23.6807 9.53174ZM21.187 10.4254H20.3359V8.56862H21.187C21.7016 8.56862 22.1864 9.03528 22.1864 9.54167C22.1963 10.0183 21.7312 10.4254 21.187 10.4254Z" fill="black"/>
<path d="M4.82912 17.5745C4.82912 17.9816 4.49266 18.3191 4.08693 18.3191C3.68121 18.3191 3.34475 17.9816 3.34475 17.5745C3.34475 17.1674 3.68121 16.8298 4.08693 16.8298C4.49266 16.8298 4.82912 17.1674 4.82912 17.5745Z" fill="black"/>
<path d="M4.82912 14.2285C4.82912 14.6356 4.49266 14.9732 4.08693 14.9732C3.68121 14.9732 3.34475 14.6356 3.34475 14.2285C3.34475 13.8215 3.68121 13.4839 4.08693 13.4839C4.49266 13.4839 4.82912 13.8115 4.82912 14.2285Z" fill="black"/>
<path d="M4.82912 10.8723C4.82912 11.2794 4.49266 11.617 4.08693 11.617C3.68121 11.617 3.34475 11.2794 3.34475 10.8723C3.34475 10.4652 3.68121 10.1277 4.08693 10.1277C4.49266 10.1277 4.82912 10.4652 4.82912 10.8723Z" fill="black"/>
</svg>
