<svg width="44" height="42" viewBox="0 0 44 42" fill="none" xmlns="http://www.w3.org/2000/svg">
<path d="M11.764 26.6329C12.1722 26.4003 12.3118 25.882 12.0755 25.4802C11.8392 25.0783 11.3129 24.9408 10.9047 25.1735C10.4966 25.4061 10.357 25.9244 10.5933 26.3262C10.8295 26.7281 11.3451 26.8656 11.764 26.6329Z" fill="black"/>
<path d="M8.24102 32.4708L12.5696 39.8527C13.504 41.4497 15.5985 42.0419 17.2633 41.0901C18.9067 40.1594 19.4759 38.0865 18.52 36.4684L15.9422 32.0689L18.1763 30.7998C18.5845 30.5671 18.7241 30.0489 18.4878 29.647L17.3707 27.7434C17.4996 27.7222 18.3804 27.553 33.8257 24.5601C35.7376 24.4543 36.8761 22.4026 35.9202 20.7528L33.0631 15.8773L34.8891 13.1593C35.0717 12.8949 35.0824 12.5459 34.9213 12.2709L33.2028 9.34144C33.0416 9.06647 32.7302 8.89726 32.4079 8.91841L29.0997 9.11935L25.9312 3.7151C25.4693 2.93249 24.653 2.45658 23.7293 2.446H23.6971C22.8056 2.446 22 2.87961 21.5274 3.61992L10.2925 17.6963L2.99948 21.8421C0.131676 23.4708 -0.867223 27.0983 0.797609 29.9326C2.31207 32.5237 5.52358 33.5389 8.24102 32.4708ZM17.027 37.3145C17.4996 38.1183 17.2204 39.1547 16.3933 39.6306C15.5663 40.096 14.5137 39.8104 14.0411 39.0066L9.74474 31.6776L12.72 29.9855C17.7037 38.4673 16.9518 37.177 17.027 37.3145ZM15.0829 30.6094L14.2237 29.1394L15.7166 28.2933L16.5759 29.7634L15.0829 30.6094ZM31.9783 10.6423L33.1705 12.6623L32.1072 14.2381L30.0557 10.748L31.9783 10.6423ZM22.956 4.54002C23.1815 4.16986 23.5575 4.12756 23.6971 4.13814C23.8475 4.13814 24.2127 4.18044 24.4275 4.56117L34.4272 21.6094C34.7494 22.1593 34.352 22.8574 33.7076 22.8785C33.5894 22.8785 33.5357 22.8997 33.235 22.9525L22.666 4.92075C22.8915 4.64578 22.913 4.61405 22.956 4.54002ZM21.5167 6.35906L31.452 23.3015L16.4685 26.1887L11.9144 18.4155L21.5167 6.35906ZM2.29059 29.0865C1.91466 28.4414 1.71058 27.7117 1.71058 26.9713C1.71058 25.459 2.53763 24.0524 3.85875 23.3015L10.561 19.4942L14.8574 26.8233L8.15509 30.6306C6.10359 31.8045 3.47208 31.1065 2.29059 29.0865Z" fill="black"/>
<path d="M9.10028 27.1723C8.86398 26.7704 8.33768 26.6329 7.92953 26.8656L6.43655 27.7117C6.0284 27.9443 5.50209 27.8068 5.2658 27.405C5.0295 27.0031 4.5032 26.8656 4.09504 27.0983C3.68689 27.3309 3.54726 27.8492 3.78356 28.251C4.49245 29.4567 6.07136 29.8797 7.30656 29.1817L8.79953 28.3356C9.19695 28.0924 9.33658 27.5742 9.10028 27.1723Z" fill="black"/>
<path d="M42.7085 4.2545L37.918 6.8773C37.4992 7.09939 37.3488 7.61761 37.5851 8.03007C37.8106 8.44252 38.3369 8.59059 38.7558 8.35792L43.5462 5.73511C43.9651 5.50244 44.1155 4.9948 43.8792 4.58235C43.6429 4.16989 43.1274 4.02183 42.7085 4.2545Z" fill="black"/>
<path d="M42.2035 13.0218L38.8846 12.144C38.4228 12.0277 37.9502 12.2921 37.832 12.7468C37.7139 13.2016 37.9824 13.6669 38.4442 13.7833L41.7632 14.6611C42.225 14.788 42.6976 14.513 42.8158 14.0582C42.9339 13.6035 42.6654 13.1381 42.2035 13.0218Z" fill="black"/>
<path d="M33.8687 1.1769L32.9772 4.44484C32.859 4.8996 33.1276 5.36493 33.5894 5.48127C34.0513 5.5976 34.5239 5.33321 34.642 4.87844L35.5335 1.61051C35.6517 1.15575 35.3831 0.690417 34.9213 0.574083C34.4594 0.457748 33.9868 0.73272 33.8687 1.1769Z" fill="black"/>
</svg>
