<svg width="32" height="41" viewBox="0 0 32 41" fill="none" xmlns="http://www.w3.org/2000/svg">
<path d="M16 4.1C16.3667 4.1 16.6667 3.7925 16.6667 3.41667V0.683333C16.6667 0.3075 16.3667 0 16 0C15.6333 0 15.3333 0.3075 15.3333 0.683333V3.41667C15.3333 3.7925 15.6333 4.1 16 4.1Z" fill="black"/>
<path d="M9.09171 5.50103C9.27504 5.82562 9.68337 5.9452 10 5.75728C10.3167 5.56937 10.4334 5.15083 10.25 4.82624C10.25 4.82624 10.25 4.8177 10.2417 4.8177L8.90837 2.45166C8.72504 2.12708 8.31671 2.00749 8.00004 2.19541C7.68337 2.38333 7.56671 2.80187 7.75004 3.12645C7.75004 3.12645 7.75004 3.13499 7.75837 3.13499L9.09171 5.50103Z" fill="black"/>
<path d="M2.39168 9.13118L4.70002 10.4978C5.01668 10.6858 5.42502 10.5833 5.60835 10.2501C5.79168 9.92556 5.69168 9.50701 5.36668 9.3191C5.36668 9.3191 5.35835 9.3191 5.35835 9.31056L3.05002 7.94389C2.73335 7.75597 2.32502 7.85847 2.14168 8.1916C1.95835 8.51618 2.06668 8.93472 2.39168 9.13118C2.38335 9.13118 2.38335 9.13118 2.39168 9.13118Z" fill="black"/>
<path d="M4 16.4C4 16.0242 3.7 15.7167 3.33333 15.7167H0.666667C0.3 15.7167 0 16.0242 0 16.4C0 16.7758 0.3 17.0833 0.666667 17.0833H3.33333C3.7 17.0833 4 16.7758 4 16.4Z" fill="black"/>
<path d="M4.69998 22.3025L2.39164 23.6692C2.07498 23.8571 1.95831 24.2756 2.14164 24.6002C2.32498 24.9248 2.73331 25.0444 3.04998 24.8564C3.04998 24.8564 3.05831 24.8564 3.05831 24.8479L5.36664 23.4812C5.68331 23.2933 5.79998 22.8748 5.61664 22.5502C5.43331 22.2256 5.02498 22.106 4.69998 22.3025Z" fill="black"/>
<path d="M29.6083 23.669L27.3 22.3023C26.9833 22.1144 26.575 22.2169 26.3916 22.5501C26.2083 22.8746 26.3083 23.2932 26.6333 23.4811C26.6333 23.4811 26.6416 23.4811 26.6416 23.4896L28.95 24.8563C29.2666 25.0442 29.675 24.9417 29.8583 24.6086C30.0416 24.284 29.9333 23.8655 29.6083 23.669C29.6166 23.669 29.6166 23.669 29.6083 23.669Z" fill="black"/>
<path d="M31.3333 15.7167H28.6667C28.3 15.7167 28 16.0242 28 16.4C28 16.7758 28.3 17.0833 28.6667 17.0833H31.3333C31.7 17.0833 32 16.7758 32 16.4C32 16.0242 31.7 15.7167 31.3333 15.7167Z" fill="black"/>
<path d="M26.9667 10.5916C27.0833 10.5916 27.2 10.5574 27.3 10.4976L29.6083 9.13097C29.925 8.94305 30.0417 8.52451 29.8583 8.19993C29.675 7.87535 29.2667 7.75576 28.95 7.94368C28.95 7.94368 28.9417 7.94368 28.9417 7.95222L26.6333 9.31888C26.3167 9.5068 26.2083 9.92534 26.3917 10.2499C26.5083 10.4635 26.7333 10.5916 26.9667 10.5916Z" fill="black"/>
<path d="M22 5.74842C22.3167 5.93633 22.725 5.82529 22.9084 5.50071L24.2417 3.13466C24.425 2.81008 24.325 2.39154 24 2.20362C23.675 2.0157 23.275 2.1182 23.0917 2.45133C23.0917 2.45133 23.0917 2.45987 23.0834 2.45987L21.75 4.82592C21.575 5.14196 21.6834 5.5605 22 5.74842Z" fill="black"/>
<path d="M17.3333 27.3333C17.7 27.3333 18 27.0258 18 26.65V19.1333H19.3333C20.8083 19.1333 22 17.9119 22 16.4C22 14.8881 20.8083 13.6667 19.3333 13.6667C17.8583 13.6667 16.6667 14.8881 16.6667 16.4V17.7667H15.3333V16.4C15.3333 14.8881 14.1417 13.6667 12.6667 13.6667C11.1917 13.6667 10 14.8881 10 16.4C10 17.9119 11.1917 19.1333 12.6667 19.1333H14V26.65C14 27.0258 14.3 27.3333 14.6667 27.3333C15.0333 27.3333 15.3333 27.0258 15.3333 26.65V19.1333H16.6667V26.65C16.6667 27.0258 16.9667 27.3333 17.3333 27.3333ZM19.3333 15.0333C20.0667 15.0333 20.6667 15.6483 20.6667 16.4C20.6667 17.1517 20.0667 17.7667 19.3333 17.7667H18V16.4C18 15.6483 18.6 15.0333 19.3333 15.0333ZM11.3333 16.4C11.3333 15.6483 11.9333 15.0333 12.6667 15.0333C13.4 15.0333 14 15.6483 14 16.4V17.7667H12.6667C11.9333 17.7667 11.3333 17.1517 11.3333 16.4Z" fill="black"/>
<path d="M16.5167 5.48362C10.6333 5.19321 5.63332 9.84842 5.34999 15.8788C5.19165 19.3297 6.63332 22.6609 9.23332 24.8561C9.69999 25.232 9.98332 25.8042 9.99165 26.4192V28.0165C9.99165 28.8792 10.525 29.648 11.325 29.9384V30.7499C11.325 31.2538 11.5083 31.7407 11.8417 32.1165C11.15 32.8853 11.15 34.0811 11.8417 34.8499C11.1 35.687 11.1583 36.9767 11.975 37.737C12.3417 38.0786 12.825 38.2751 13.325 38.2665C13.6833 38.2751 13.9833 37.9847 13.9917 37.6174C13.9917 37.4722 13.95 37.3355 13.875 37.2159C13.85 37.1732 13.825 37.1305 13.8 37.0963C13.7417 37.0451 13.6833 37.0024 13.6167 36.9682C13.6 36.9597 13.575 36.9511 13.5583 36.9426C13.4917 36.917 13.4167 36.8999 13.35 36.8999C13.3417 36.8999 13.3333 36.8999 13.3333 36.8999C12.9667 36.8999 12.6667 36.5924 12.6667 36.2165C12.6667 35.8407 12.9667 35.5332 13.3333 35.5332H16C16.3667 35.5332 16.6667 35.2257 16.6667 34.8499C16.6667 34.474 16.3667 34.1665 16 34.1665H13.3333C12.9667 34.1665 12.6667 33.859 12.6667 33.4832C12.6667 33.1074 12.9667 32.7999 13.3333 32.7999H16C16.3667 32.7999 16.6667 32.4924 16.6667 32.1165C16.6667 31.7407 16.3667 31.4332 16 31.4332H13.3333C12.9667 31.4332 12.6667 31.1257 12.6667 30.7499V30.0665H16C16.3667 30.0665 16.6667 29.759 16.6667 29.3832C16.6667 29.0074 16.3667 28.6999 16 28.6999H12C11.6333 28.6999 11.3333 28.3924 11.3333 28.0165V26.4107C11.325 25.3857 10.8667 24.429 10.0833 23.7884C6.09999 20.4315 5.52499 14.4011 8.79999 10.3267C10.675 7.99487 13.5083 6.70508 16.4583 6.84175C21.3833 7.14071 25.25 11.2834 25.3333 16.3401C25.3583 19.2528 24.0833 22.0117 21.8667 23.8311C21.0917 24.4888 20.65 25.4626 20.6667 26.4876V28.0165C20.6667 28.3924 20.3667 28.6999 20 28.6999H18C17.6333 28.6999 17.3333 29.0074 17.3333 29.3832C17.3333 29.759 17.6333 30.0665 18 30.0665H19.3333V30.7499C19.3333 31.1257 19.0333 31.4332 18.6667 31.4332H18C17.6333 31.4332 17.3333 31.7407 17.3333 32.1165C17.3333 32.4924 17.6333 32.7999 18 32.7999H18.6667C19.0333 32.7999 19.3333 33.1074 19.3333 33.4832C19.3333 33.859 19.0333 34.1665 18.6667 34.1665H18C17.6333 34.1665 17.3333 34.474 17.3333 34.8499C17.3333 35.2257 17.6333 35.5332 18 35.5332H18.6667C19.0333 35.5332 19.3333 35.8407 19.3333 36.2165C19.3333 36.5924 19.0333 36.8999 18.6667 36.8999H15.3333C14.9667 36.8999 14.6667 37.2074 14.6667 37.5832C14.6667 37.959 14.9667 38.2665 15.3333 38.2665H17.8833C17.5167 39.3342 16.375 39.8895 15.3333 39.5136C15.0167 39.394 14.7333 39.1976 14.5083 38.9413C14.2667 38.6595 13.8417 38.6338 13.5667 38.8815C13.2917 39.1293 13.2667 39.5649 13.5083 39.8467C14.725 41.2561 16.8333 41.3842 18.2 40.1372C18.7667 39.6247 19.1417 38.9242 19.275 38.1555C20.3167 37.8224 20.9 36.6863 20.575 35.6101C20.4917 35.3282 20.3417 35.0634 20.1417 34.8413C20.8333 34.0726 20.8333 32.8767 20.1417 32.108C20.475 31.7322 20.6583 31.2453 20.6583 30.7413V29.9299C21.4583 29.6395 21.9917 28.8707 21.9917 28.008V26.4876C21.9833 25.8726 22.2417 25.2917 22.7 24.8903C25.225 22.8061 26.6833 19.6542 26.6583 16.323C26.5667 10.5488 22.15 5.82529 16.5167 5.48362Z" fill="black"/>
</svg>
