<svg width="41" height="41" viewBox="0 0 41 41" fill="none" xmlns="http://www.w3.org/2000/svg">
<path d="M22.4861 27.0533C21.6763 26.2727 20.4062 26.2727 19.5965 27.0533L17.6786 28.9918C17.4058 29.2491 16.9882 29.2491 16.7154 28.9918L11.8994 24.1455C11.7715 24.0169 11.7033 23.8453 11.7033 23.6566C11.7033 23.4765 11.7715 23.2964 11.8994 23.1763L13.8258 21.2378C14.627 20.4315 14.627 19.1363 13.8258 18.33L8.05509 12.5231C7.25385 11.7254 5.96674 11.7254 5.16549 12.5231L1.79002 15.9198C-0.596673 18.33 -0.596673 22.2328 1.79002 24.6344L16.2295 39.1646C18.6247 41.5748 22.5031 41.5748 24.8898 39.1646L28.2568 35.7765C29.058 34.9702 29.058 33.675 28.2568 32.8688L22.4861 27.0533ZM6.12869 13.501C6.25655 13.3723 6.42703 13.3037 6.60603 13.3037C6.78503 13.3037 6.96403 13.3723 7.08337 13.501L12.8626 19.3165C12.9904 19.4451 13.0586 19.6167 13.0586 19.7968C13.0586 19.9769 12.9904 20.157 12.8626 20.2857L11.422 21.7353L4.67963 14.9506L6.12869 13.501ZM23.9351 38.1953C22.0769 40.0652 19.0595 40.0652 17.1927 38.1953L2.75322 23.6652C0.89501 21.7867 0.89501 18.7589 2.75322 16.8805L3.71642 15.9112L10.5441 22.7817C10.169 23.5623 10.331 24.4972 10.9362 25.1148L15.7522 29.961C16.3744 30.5529 17.2865 30.7072 18.0622 30.347L24.8898 37.2261L23.9351 38.1953ZM27.3021 34.8072L25.8615 36.2568L19.1191 29.4721L20.5597 28.0225C20.8324 27.7652 21.2501 27.7652 21.5229 28.0225L27.3021 33.838C27.5663 34.1039 27.5663 34.5413 27.3021 34.8072Z" fill="black"/>
<path d="M31.4702 0.0688477C26.211 0.0688477 21.9405 4.36613 21.9405 9.65839C21.9405 14.9506 26.211 19.2479 31.4702 19.2479C36.7295 19.2479 40.9999 14.9592 40.9999 9.65839C40.9914 4.36613 36.7295 0.0774251 31.4702 0.0688477ZM31.4702 17.8841C26.9611 17.8841 23.3043 14.2044 23.3043 9.66696C23.3043 5.12952 26.9611 1.44981 31.4702 1.44981C35.9794 1.44981 39.6361 5.12952 39.6361 9.66696C39.6361 14.2044 35.9794 17.8755 31.4702 17.8841Z" fill="black"/>
<path d="M31.4702 3.49981C28.8363 3.49981 26.7053 5.64416 26.7053 8.29458C26.7053 11.2366 30.5496 15.1908 30.9929 15.6283C31.2571 15.8942 31.6918 15.8942 31.9561 15.6283C32.3908 15.1908 36.2436 11.2366 36.2436 8.29458C36.2351 5.64416 34.1041 3.49981 31.4702 3.49981ZM31.4702 14.1529C30.2087 12.772 28.0692 10.0529 28.0692 8.29458C28.0692 6.39897 29.595 4.87219 31.4702 4.87219C33.354 4.87219 34.8713 6.40755 34.8713 8.29458C34.8713 10.0529 32.7318 12.7634 31.4702 14.1529Z" fill="black"/>
<path d="M31.4702 6.23609C30.3451 6.23609 29.4245 7.15387 29.4245 8.29466C29.4245 9.42688 30.3365 10.3532 31.4702 10.3532C32.5954 10.3532 33.516 9.43545 33.516 8.29466C33.516 7.15387 32.5954 6.23609 31.4702 6.23609ZM31.4702 8.98085C31.0952 8.98085 30.7883 8.67207 30.7883 8.29466C30.7883 7.91726 31.0952 7.60847 31.4702 7.60847C31.8453 7.60847 32.1521 7.91726 32.1521 8.29466C32.1521 8.67207 31.8453 8.98085 31.4702 8.98085Z" fill="black"/>
<path d="M29.433 29.5238H28.0692V30.8962H29.433V29.5238Z" fill="black"/>
<path d="M32.1521 29.5238H30.7883V30.8962H32.1521V29.5238Z" fill="black"/>
<path d="M32.1521 26.7875H30.7883V28.1599H32.1521V26.7875Z" fill="black"/>
<path d="M32.1521 24.0512H30.7883V25.4236H32.1521V24.0512Z" fill="black"/>
<path d="M32.1521 21.3064H30.7883V22.6788H32.1521V21.3064Z" fill="black"/>
</svg>
