<svg width="36" height="36" viewBox="0 0 36 36" fill="none" xmlns="http://www.w3.org/2000/svg">
<path d="M15.6 12.6C15.93 12.6 16.2 12.87 16.2 13.2H17.4C17.4 12.21 16.59 11.4 15.6 11.4C14.61 11.4 13.8 12.21 13.8 13.2H15C15 12.87 15.27 12.6 15.6 12.6Z" fill="black"/>
<path d="M20.4 12.6C20.73 12.6 21 12.87 21 13.2H22.2C22.2 12.21 21.39 11.4 20.4 11.4C19.41 11.4 18.6 12.21 18.6 13.2H19.8C19.8 12.87 20.07 12.6 20.4 12.6Z" fill="black"/>
<path d="M18 31.2C17.34 31.2 16.8 30.66 16.8 30C16.8 29.34 17.34 28.8 18 28.8C18.66 28.8 19.2 29.34 19.2 30C19.2 30.66 18.66 31.2 18 31.2ZM18 27.6C16.68 27.6 15.6 28.68 15.6 30C15.6 31.32 16.68 32.4 18 32.4C19.32 32.4 20.4 31.32 20.4 30C20.4 28.68 19.32 27.6 18 27.6Z" fill="black"/>
<path d="M29.4 34.8V27C29.4 25.3425 28.0575 24 26.4 24H21.3675L23.76 19.215C27.8925 19.4025 31.2 22.815 31.2 27V34.8H29.4ZM7.8 34.8V27C7.8 26.01 8.61 25.2 9.6 25.2H26.4C27.39 25.2 28.2 26.01 28.2 27V34.8H7.8ZM4.8 27C4.8 22.8225 8.1075 19.41 12.24 19.215L14.6325 24H9.6C7.9425 24 6.6 25.3425 6.6 27V34.8H4.8V27ZM17.0325 24H15.975L13.575 19.2H14.6325L17.0325 24ZM12 12.6V10.17C13.875 10.005 15.465 9.105 16.26 7.8375C17.5125 9.5025 20.445 10.6725 24 10.7925V12.6C24 13.95 23.5425 15.195 22.785 16.2H18V17.4H21.585C21.24 17.655 20.8725 17.88 20.475 18.06C18.9 18.7725 17.1 18.7725 15.525 18.06C13.4475 17.115 12 15.03 12 12.6ZM10.5 12.6C9.675 12.6 9 11.925 9 11.1C9 10.275 9.675 9.6 10.5 9.6H10.8V12.6H10.5ZM24 9.585C19.6725 9.435 16.8 7.665 16.8 6C16.8 5.67 16.53 5.4 16.2 5.4C15.87 5.4 15.6 5.67 15.6 6C15.6 7.5 14.0475 8.745 12.0375 8.9625C12.3525 5.955 14.91 3.6 18 3.6C21.3 3.6 23.9925 6.285 24 9.585ZM18 1.2C22.11 1.2 25.4775 4.395 25.77 8.43C25.68 8.4225 25.59 8.4 25.5 8.4H25.095C24.525 5.0025 21.5625 2.4 18 2.4C14.4375 2.4 11.4825 5.0025 10.905 8.4H10.5C10.41 8.4 10.32 8.415 10.23 8.43C10.5225 4.395 13.89 1.2 18 1.2ZM25.5 12.6H25.2V9.6H25.5C26.325 9.6 27 10.275 27 11.1C27 11.925 26.325 12.6 25.5 12.6ZM25.8 14.4C25.8 15.3075 25.1175 16.0575 24.24 16.1775C24.6525 15.4575 24.945 14.655 25.0875 13.8H25.4925C25.5975 13.8 25.695 13.7775 25.7925 13.77V14.4H25.8ZM22.4325 19.2L20.0325 24H18.975L21.375 19.2H22.4325ZM18 19.8C18.645 19.8 19.26 19.71 19.8525 19.5525L18 23.2575L16.1475 19.545C16.74 19.71 17.355 19.8 18 19.8ZM32.4 27C32.4 22.035 28.365 18 23.4 18H22.7475C22.9575 17.8125 23.16 17.61 23.355 17.4H24C25.6575 17.4 27 16.0575 27 14.4V13.3425C27.72 12.855 28.2 12.03 28.2 11.1C28.2 10.1625 27.72 9.3375 26.9925 8.85C26.91 3.96 22.9125 0 18 0C13.0875 0 9.09 3.96 9.0075 8.85C8.28 9.3375 7.8 10.1625 7.8 11.1C7.8 12.585 9.015 13.8 10.5 13.8H10.905C11.1825 15.465 12.0375 16.9275 13.2525 18H12.6C7.635 18 3.6 22.035 3.6 27V34.8H0V36H36V34.8H32.4V27Z" fill="black"/>
<path d="M27 29.4H25.8V33.6H27V29.4Z" fill="black"/>
<path d="M27 27H25.8V28.2H27V27Z" fill="black"/>
<path d="M32.4 5.4H31.2V6.6H32.4V5.4Z" fill="black"/>
<path d="M32.4 7.8H31.2V9H32.4V7.8Z" fill="black"/>
<path d="M32.4 10.2H31.2V11.4H32.4V10.2Z" fill="black"/>
<path d="M4.79998 12.6H3.59998V13.8H4.79998V12.6Z" fill="black"/>
<path d="M4.79998 15H3.59998V16.2H4.79998V15Z" fill="black"/>
<path d="M4.79998 17.4H3.59998V18.6H4.79998V17.4Z" fill="black"/>
</svg>
