<svg xmlns="http://www.w3.org/2000/svg"><symbol id="icon_cart" viewBox="0 0 22 20"><path d="M1 1h3.636l2.437 11.477c.083.395.31.75.643 1.002a1.89 1.89 0 001.175.378h8.836c.427.008.843-.126 1.175-.378a1.7 1.7 0 00.643-1.002L21 5.286H5.545m3.637 12.857c0 .473-.407.857-.91.857-.501 0-.908-.384-.908-.857 0-.474.407-.857.909-.857s.909.383.909.857zm10 0c0 .473-.407.857-.91.857-.501 0-.908-.384-.908-.857 0-.474.407-.857.909-.857s.909.383.909.857z" stroke-width="2" stroke-linecap="round" stroke-linejoin="round"/></symbol><symbol id="icon_search" viewBox="0 0 20 20"><path d="M19 19l-4.35-4.35M17 9A8 8 0 111 9a8 8 0 0116 0z" stroke-width="2" stroke-linecap="round" stroke-linejoin="round"/></symbol></svg>