<svg xmlns="http://www.w3.org/2000/svg"><defs><clipPath id="clip0"><path d="M0 0h42v20H0z"/></clipPath></defs><symbol id="icon_features-1" viewBox="0 0 84 81"><path d="M80.038 72.161h-.919a11.726 11.726 0 01-1.05-2.012 1.213 1.213 0 00-1.597-.656 1.23 1.23 0 00-.656 1.619c.153.371.328.721.503 1.071h-48.3a3.54 3.54 0 00-1.071.153c-.766-1.312-1.816-3.74-1.816-7.326 0-.525.022-1.072.066-1.575h23.58c.679 0 1.226-.547 1.226-1.224 0-.678-.547-1.225-1.225-1.225H26.248l2.887-3.128h47.14a15.356 15.356 0 00-1.18 3.128H58.928c-.678 0-1.225.547-1.225 1.225s.547 1.224 1.225 1.224h15.75a34.636 34.636 0 00-.088 1.51c0 .677.547 1.224 1.225 1.224s1.225-.547 1.225-1.225c0-2.58.722-5.03 2.078-7.107h.92a3.958 3.958 0 100-7.917H64.66l14.088-14.084a4.184 4.184 0 001.246-2.997 4.184 4.184 0 00-1.246-2.996l-.307-.306a4.186 4.186 0 00-2.997-1.247 4.18 4.18 0 00-2.778 1.05l-2.187-2.187.743-.743c1.007-.985 1.291-2.472.766-3.784l-1.006-2.45a2.715 2.715 0 00-1.969-1.64l-1.706-1.705a1.241 1.241 0 00-1.75 0 1.24 1.24 0 000 1.75l.831.83-19.38 19.377-5.71-5.708L60.7 13.68l.743.766c.241.24.547.35.875.35.307 0 .635-.11.875-.35a1.24 1.24 0 000-1.75l-1.618-1.618a2.639 2.639 0 00-1.64-1.969l-2.45-1.006a3.475 3.475 0 00-3.785.766l-.744.743-2.188-2.186a4.178 4.178 0 001.05-2.778 4.184 4.184 0 00-1.246-2.996l-.307-.306A4.186 4.186 0 0047.27.1a4.186 4.186 0 00-2.997 1.247L28.96 16.656a4.184 4.184 0 00-1.247 2.996c0 1.137.438 2.187 1.247 2.996l.307.306a4.18 4.18 0 002.996 1.247 4.18 4.18 0 002.779-1.05l2.187 2.187-.744.743a3.506 3.506 0 00-.765 3.784l1.006 2.45a2.778 2.778 0 001.947 1.64l-6.169 7.348a4.163 4.163 0 00-4.572.919 4.165 4.165 0 00-1.225 2.974c0 .503.088.984.263 1.443l-2.8 2.58a1.216 1.216 0 00-.066 1.729 1.216 1.216 0 001.728.065l2.581-2.384 3.041 3.04L8.551 76.492a3.555 3.555 0 01-2.516 1.137c-.962.022-1.859-.35-2.559-1.028a3.497 3.497 0 01-1.028-2.559 3.468 3.468 0 011.137-2.515L21.567 54.95c.503-.46.525-1.247.065-1.728a1.216 1.216 0 00-1.728-.066L1.923 69.734a5.973 5.973 0 00-1.925 4.264 5.94 5.94 0 001.75 4.33 5.906 5.906 0 004.222 1.75h.13c1.64-.022 3.15-.722 4.266-1.924l7.35-7.961c.612 2.056 1.443 3.477 1.968 4.22a2.871 2.871 0 002.341 1.204h2.078a4.24 4.24 0 00-.044.525 3.958 3.958 0 003.96 3.958h52.018a3.958 3.958 0 003.96-3.958 3.963 3.963 0 00-3.96-3.98zm1.51-18.305a1.49 1.49 0 01-1.488 1.487H31.41l2.057-2.209c.459.175.962.263 1.443.263a4.23 4.23 0 002.757-1.028H80.06c.81 0 1.487.678 1.487 1.487zM44.425 39.663l-7.131 5.97-2.822-2.821 5.972-7.13 3.98 3.98zm-5.38 10.257a4.208 4.208 0 00-.263-2.319l7.35-6.167c.197.875.81 1.619 1.64 1.947l2.45 1.006a3.51 3.51 0 001.313.262c.897 0 1.794-.35 2.472-1.028l.744-.743 2.187 2.187a4.236 4.236 0 00-.481 4.855H39.045zm36.4-19.18c.48 0 .918.175 1.246.525l.306.306c.329.328.525.787.525 1.246 0 .46-.175.919-.525 1.247L61.686 49.373a1.793 1.793 0 01-1.247.525 1.67 1.67 0 01-1.247-.525l-.306-.306c-.7-.7-.7-1.816 0-2.515l15.313-15.31a1.872 1.872 0 011.246-.502zm-4.529.306l-12.25 12.247-2.165-2.165 12.25-12.247 2.165 2.165zm-22.29 9.6l19.643-19.638a.267.267 0 01.197-.088h.066c.066.022.153.044.197.175l1.006 2.45c.153.393.066.809-.219 1.115L52.28 41.872a1.041 1.041 0 01-1.116.218l-2.45-1.006a.3.3 0 01-.175-.197c0-.043 0-.153.088-.24zM32.263 21.73a1.67 1.67 0 01-1.246-.524l-.307-.307a1.792 1.792 0 01-.525-1.246c0-.46.175-.919.525-1.247l15.313-15.31a1.793 1.793 0 011.247-.525c.48 0 .918.175 1.246.525l.307.306c.328.329.525.788.525 1.247 0 .46-.175.919-.525 1.247L33.51 21.204c-.328.35-.765.525-1.247.525zm4.529-.306l12.25-12.247 2.165 2.165-12.25 12.247-2.166-2.165zm1.421 6.386L55.43 10.598a1.03 1.03 0 01.722-.307.85.85 0 01.393.088l2.45 1.006a.3.3 0 01.175.197c.022.065 0 .153-.065.24L39.46 31.462c-.087.087-.175.087-.24.065-.066-.022-.154-.044-.197-.175l-1.007-2.45c-.174-.35-.087-.787.197-1.093zm-9.056 17.387c0-.46.175-.897.503-1.225a1.756 1.756 0 012.472 0l4.003 4.002a1.755 1.755 0 010 2.471 1.756 1.756 0 01-2.472 0l-4.003-4.002a1.81 1.81 0 01-.503-1.246zM21.72 72.97c-.547-.766-1.51-2.428-1.969-4.965l2.953-3.193v.175c0 3.784 1.028 6.517 1.903 8.157h-2.56a.36.36 0 01-.327-.174zm58.318 4.636H28.02a1.489 1.489 0 01-1.488-1.487c0-.831.678-1.487 1.488-1.487h52.018a1.49 1.49 0 011.488 1.487c.022.83-.657 1.487-1.488 1.487z"/><path d="M34.429 66.54c-.678 0-1.225.547-1.225 1.225s.547 1.225 1.225 1.225h28.656c.678 0 1.225-.546 1.225-1.224 0-.678-.547-1.225-1.225-1.225H34.429z"/></symbol><symbol id="icon_features-2" viewBox="0 0 80 80"><path d="M9.503 61.215A9.27 9.27 0 00.928 66.94 9.295 9.295 0 002.94 77.061a9.295 9.295 0 0010.122 2.01 9.27 9.27 0 005.724-8.574 9.28 9.28 0 00-9.282-9.282zm0 15.912a6.622 6.622 0 01-6.122-4.088 6.644 6.644 0 011.437-7.227 6.644 6.644 0 017.226-1.436 6.622 6.622 0 014.089 6.121 6.621 6.621 0 01-6.63 6.63z"/><path d="M9.503 66.52a3.974 3.974 0 103.978 3.977 3.99 3.99 0 00-3.978-3.978zm0 5.303c-.53 0-1.017-.331-1.216-.817a1.332 1.332 0 01.288-1.437c.375-.376.95-.486 1.436-.287s.818.685.818 1.215a1.33 1.33 0 01-1.326 1.326zm64.044-44.685l-3.978 3.978c-.508.508-.508 1.348 0 1.879l3.978 3.977 1.878-1.878-3.05-3.05 3.05-3.05-1.878-1.856z"/><path d="M73.15 55.912h-1.327v-1.326a3.99 3.99 0 00-3.978-3.978H59.89a3.99 3.99 0 00-3.977 3.978v5.303a1.33 1.33 0 01-1.326 1.326h-13.26v-2.652h7.956a3.99 3.99 0 003.978-3.977V40.818a15.852 15.852 0 002.585-7.448h7.47l3.58 3.602 1.878-1.878-3.027-3.05 3.05-3.027-1.879-1.879-3.602 3.58h-7.47a15.686 15.686 0 00-2.585-7.447V9.503a3.99 3.99 0 00-3.978-3.978h-3.978V4.199A3.99 3.99 0 0041.326.22a3.99 3.99 0 00-3.978 3.978v1.326h-6.63V4.199A3.99 3.99 0 0026.74.22a3.99 3.99 0 00-3.978 3.978v1.326h-6.63V4.199A3.99 3.99 0 0012.156.22a3.99 3.99 0 00-3.978 3.978v1.326H4.199A3.99 3.99 0 00.22 9.503v45.083a3.99 3.99 0 003.978 3.977h34.475v3.978c0 .73.597 1.326 1.326 1.326h14.586a3.99 3.99 0 003.977-3.977v-5.304c0-.73.597-1.326 1.326-1.326h7.956c.73 0 1.326.596 1.326 1.326v1.326h-1.326a6.621 6.621 0 00-6.63 6.63v10.607a6.621 6.621 0 006.63 6.63h5.304a6.621 6.621 0 006.63-6.63V62.541a6.621 6.621 0 00-6.63-6.63zm-22.542-1.326a1.33 1.33 0 01-1.326 1.326h-7.956v-8.023a15.801 15.801 0 009.282-4.022v10.719zM40 4.199c0-.73.597-1.326 1.326-1.326.73 0 1.326.597 1.326 1.326v5.304a1.33 1.33 0 01-1.326 1.326A1.33 1.33 0 0140 9.503V4.199zm-14.586 0c0-.73.597-1.326 1.326-1.326.73 0 1.326.597 1.326 1.326v5.304a1.33 1.33 0 01-1.326 1.326 1.33 1.33 0 01-1.326-1.326V4.199zm-14.585 0c0-.73.596-1.326 1.326-1.326a1.33 1.33 0 011.326 1.326v5.304a1.33 1.33 0 01-1.326 1.326 1.33 1.33 0 01-1.326-1.326V4.199zM2.873 9.503c0-.73.597-1.326 1.326-1.326h3.978v1.326a3.99 3.99 0 003.978 3.978 3.99 3.99 0 003.978-3.978V8.177h6.63v1.326a3.99 3.99 0 003.977 3.978 3.99 3.99 0 003.978-3.978V8.177h6.63v1.326a3.99 3.99 0 003.978 3.978 3.99 3.99 0 003.978-3.978V8.177h3.978a1.33 1.33 0 011.326 1.326V20.22A15.85 15.85 0 0040 16.133H2.873v-6.63zm1.326 46.409a1.33 1.33 0 01-1.326-1.326V18.785h28.354c-5.658 3.734-8.31 10.651-6.63 17.215a15.88 15.88 0 0014.1 11.89v8.022H4.198zM26.74 32.044c0-7.072 5.547-12.884 12.597-13.237 7.05-.354 13.15 4.884 13.856 11.911H50.52c-.707-5.547-5.59-9.613-11.182-9.26-5.591.354-9.945 4.995-9.945 10.586s4.354 10.232 9.945 10.586c5.591.353 10.497-3.713 11.182-9.26h2.674c-.707 7.028-6.806 12.265-13.856 11.912-7.05-.354-12.597-6.166-12.597-13.238zm15.536 1.326a2.66 2.66 0 01-2.983 1.238 2.672 2.672 0 01-1.967-2.564c0-1.193.795-2.254 1.967-2.563a2.66 2.66 0 012.983 1.237H40v2.652h2.276zM40 26.74a5.329 5.329 0 00-4.773 2.962 5.291 5.291 0 00.552 5.59 5.242 5.242 0 005.26 1.945 5.27 5.27 0 004.066-3.867h2.718c-.685 4.089-4.398 6.94-8.508 6.608-4.11-.354-7.293-3.801-7.293-7.934 0-4.132 3.16-7.58 7.293-7.933 4.11-.354 7.823 2.519 8.508 6.607h-2.718A5.27 5.27 0 0040 26.74zm23.867 35.801a3.99 3.99 0 013.978-3.977h1.326v5.303h-5.304v-1.326zm13.26 10.608a3.99 3.99 0 01-3.978 3.978h-5.304a3.99 3.99 0 01-3.978-3.978v-6.63h13.26v6.63zm0-9.282h-5.304v-5.303h1.326a3.99 3.99 0 013.978 3.977v1.326z"/><path d="M12.155 21.436H6.85a1.33 1.33 0 00-1.326 1.326v5.304c0 .73.596 1.326 1.326 1.326h5.304a1.33 1.33 0 001.326-1.326v-5.304a1.33 1.33 0 00-1.326-1.326zm-1.326 5.304H8.177v-2.652h2.652v2.652zm1.326 18.564H6.85a1.33 1.33 0 00-1.326 1.326v5.304A1.33 1.33 0 006.85 53.26h5.304a1.33 1.33 0 001.326-1.326V46.63a1.33 1.33 0 00-1.326-1.326zm-1.326 5.304H8.177v-2.652h2.652v2.652zm1.326-17.238H6.85a1.33 1.33 0 00-1.326 1.326V40c0 .73.596 1.326 1.326 1.326h5.304A1.33 1.33 0 0013.48 40v-5.304a1.33 1.33 0 00-1.326-1.326zm-1.326 5.304H8.177v-2.652h2.652v2.652zm11.933-5.304H17.46a1.33 1.33 0 00-1.326 1.326V40c0 .73.596 1.326 1.326 1.326h5.303A1.33 1.33 0 0024.088 40v-5.304a1.33 1.33 0 00-1.326-1.326zm-1.326 5.304h-2.651v-2.652h2.651v2.652zm-3.977-9.282h5.303a1.33 1.33 0 001.326-1.326v-5.304a1.33 1.33 0 00-1.326-1.326H17.46a1.33 1.33 0 00-1.326 1.326v5.304c0 .73.596 1.326 1.326 1.326zm1.326-5.304h2.651v2.652h-2.651v-2.652zm3.977 21.216H17.46a1.33 1.33 0 00-1.326 1.326v5.304c0 .73.596 1.326 1.326 1.326h5.303a1.33 1.33 0 001.326-1.326V46.63a1.33 1.33 0 00-1.326-1.326zm-1.326 5.304h-2.651v-2.652h2.651v2.652zm49.061-31.823a9.27 9.27 0 008.575-5.724A9.295 9.295 0 0077.06 2.939 9.295 9.295 0 0066.939.93a9.27 9.27 0 00-5.724 8.574 9.28 9.28 0 009.282 9.282zm0-15.912a6.622 6.622 0 016.122 4.088 6.644 6.644 0 01-1.437 7.227 6.644 6.644 0 01-7.226 1.436 6.622 6.622 0 01-4.089-6.121 6.62 6.62 0 016.63-6.63z"/><path d="M70.497 13.48a3.974 3.974 0 10-3.978-3.977 3.99 3.99 0 003.978 3.978zm0-5.303c.53 0 1.017.331 1.216.817a1.332 1.332 0 01-.288 1.437 1.33 1.33 0 01-1.436.287 1.326 1.326 0 01-.818-1.215c0-.73.597-1.326 1.326-1.326zM24.088 61.215h-2.652v2.652h2.652v-2.652zm10.608 0H26.74v2.652h7.956v-2.652zm-10.608 7.956h-2.652v2.652h2.652v-2.652zm10.608 0H26.74v2.652h7.956v-2.652zm-10.608 7.956h-2.652v2.652h2.652v-2.652zm10.608 0H26.74v2.652h7.956v-2.652z"/></symbol><symbol id="icon_features-3" viewBox="0 0 88 85"><path d="M85.94 39.74c-1.294-1.195-3.082-1.919-4.87-2.02-2.025-.1-3.932.606-5.345 2.02l-9.67 9.46a6.967 6.967 0 00-.648-.927c-1.192-1.397-2.928-2.17-4.903-2.17H46.969c-2.554 0-5.04-.32-7.406-.977-6.147-1.683-12.02-.454-16.992 3.552-2.026 1.632-3.49 3.4-4.426 4.696L15.71 51.05a1.76 1.76 0 00-1.192-.488h-.017a1.7 1.7 0 00-1.226.521L1.477 63.204A1.608 1.608 0 001 64.415c.017.455.204.875.528 1.195l19.97 18.801c.324.32.75.471 1.175.471.443 0 .886-.168 1.226-.505l11.697-11.866c.323-.32.493-.774.493-1.212a1.797 1.797 0 00-.527-1.195l-1.022-.976 2.333-.252a36.103 36.103 0 014.256-.253h20.6c3.355 0 6.198-.724 8.445-2.154.017-.017.034-.017.051-.034a10.903 10.903 0 002.18-1.953l13.892-16.141c2.401-2.777 2.248-6.228-.357-8.601zM22.622 80.81L5.137 64.33l9.415-9.678 17.383 16.68-9.313 9.476zM83.71 46.135L69.817 62.278a8.777 8.777 0 01-1.498 1.346c-1.703 1.06-3.916 1.599-6.59 1.599h-20.6c-1.55 0-3.116.084-4.648.27l-5.125.572L20.63 55.78c.75-1.095 2.111-2.862 4.103-4.46 4.12-3.334 8.803-4.31 13.91-2.913a31.588 31.588 0 008.309 1.094h13.535c2.434 0 3.081 2.087 3.081 3.316 0 .892-.289 1.75-.8 2.34-.545.64-1.345.976-2.332.976H48.67c-.953 0-1.72.757-1.72 1.7 0 .942.767 1.7 1.72 1.7h11.782c1.992 0 3.745-.774 4.937-2.154 1.005-1.162 1.567-2.677 1.618-4.31l11.134-10.906c1.6-1.583 4.086-1.179 5.465.084.733.64 1.703 2.02.103 3.888z"/><path d="M43.325 57.362a1.716 1.716 0 00-2.06-1.262c-.92.219-1.498 1.128-1.277 2.037l.017.067a1.721 1.721 0 001.669 1.313c.136 0 .255-.017.391-.05.92-.22 1.499-1.128 1.277-2.037l-.017-.068zM12.56 35.868h16.685a4.09 4.09 0 002.435-.79 4.16 4.16 0 002.434.79H50.8c.903 0 1.754-.286 2.435-.79a4.2 4.2 0 002.435.79h16.668c2.28 0 4.137-1.834 4.137-4.09v-7.692c0-3.45-1.958-6.446-4.887-7.927a9.65 9.65 0 002.265-6.228c0-5.386-4.427-9.763-9.875-9.763s-9.875 4.377-9.875 9.763a9.72 9.72 0 002.265 6.228 8.87 8.87 0 00-3.167 2.693 8.869 8.869 0 00-3.167-2.693 9.65 9.65 0 002.265-6.228c0-5.386-4.427-9.763-9.875-9.763s-9.875 4.377-9.875 9.763a9.72 9.72 0 002.264 6.228 8.869 8.869 0 00-3.166 2.693 8.87 8.87 0 00-3.167-2.693 9.65 9.65 0 002.264-6.228c0-5.386-4.426-9.763-9.874-9.763-5.449 0-9.875 4.377-9.875 9.763a9.72 9.72 0 002.264 6.228c-2.928 1.48-4.886 4.477-4.886 7.927v7.692a4.196 4.196 0 004.188 4.09zM63.994 3.552c3.558 0 6.453 2.861 6.453 6.379 0 3.518-2.895 6.379-6.453 6.379-3.558 0-6.453-2.861-6.453-6.38 0-3.517 2.895-6.378 6.453-6.378zm-4.46 15.08a9.86 9.86 0 004.443 1.044c1.6 0 3.116-.387 4.444-1.043 2.656.454 4.613 2.727 4.613 5.436v7.693a.715.715 0 01-.715.706H55.653a.715.715 0 01-.715-.707V24.07a5.5 5.5 0 014.596-5.436zM42.44 3.553c3.558 0 6.453 2.861 6.453 6.379 0 3.518-2.895 6.379-6.453 6.379-3.558 0-6.453-2.861-6.453-6.38.017-3.517 2.911-6.378 6.453-6.378zm-4.444 15.08a9.86 9.86 0 004.444 1.044c1.6 0 3.116-.387 4.444-1.043 2.655.454 4.613 2.727 4.613 5.436v7.693a.715.715 0 01-.715.706H34.114a.715.715 0 01-.715-.707V24.07c-.017-2.71 1.941-4.982 4.597-5.436zM20.903 3.553c3.558 0 6.452 2.861 6.452 6.379 0 3.518-2.894 6.379-6.452 6.379-3.559 0-6.453-2.861-6.453-6.38 0-3.517 2.894-6.378 6.453-6.378zm-9.058 20.534c0-2.726 1.958-4.982 4.614-5.436a9.86 9.86 0 004.444 1.043c1.6 0 3.115-.387 4.443-1.043 2.656.454 4.614 2.726 4.614 5.436v7.692a.715.715 0 01-.715.707H12.56a.715.715 0 01-.715-.707v-7.692z"/></symbol><symbol id="icon_location" viewBox="0 0 17 18"><path d="M16.355 16.06h-4.68v-1.12h4.305c-.36-1.088-.682-2.054-.682-2.054h-3.253c-.977.919-1.878 1.767-2.69 2.864l-.862 1.167-.863-1.167c-.816-1.106-1.736-1.969-2.684-2.864H1.693c-.005.019-.323.975-.683 2.053h4.31v1.12H.64C.303 17.087.01 17.977 0 18h17c-.01-.023-.303-.914-.645-1.94z"/><path d="M8.502 15.127c2.57-3.483 6.236-4.829 6.236-8.963C14.733 2.63 12.073 0 8.502 0c-3.57 0-6.235 2.63-6.235 6.164 0 4.13 3.66 5.475 6.235 8.963zm0-10.416c.934 0 1.703.755 1.703 1.678 0 .923-.764 1.683-1.703 1.683A1.694 1.694 0 016.8 6.389c0-.923.763-1.678 1.702-1.678z"/></symbol><symbol id="icon_mail" viewBox="0 0 19 14"><path d="M9.463 8.393l1.907-1.774L18.046.162A1.71 1.71 0 0017.33 0H1.67c-.256 0-.497.061-.716.162l8.509 8.23zm9.37 4.685a1.57 1.57 0 00.167-.693V1.615c0-.247-.063-.48-.167-.692L12.55 7l6.283 6.078zM.167.923A1.567 1.567 0 000 1.615v10.77c0 .247.063.48.167.693L6.45 7 .167.923z"/><path d="M11.764 7.761L9.856 9.534a.57.57 0 01-.786 0L7.236 7.761.954 13.838c.219.101.46.162.716.162h15.66c.256 0 .497-.061.716-.162l-6.282-6.077z"/></symbol><symbol id="icon_next-arrow" viewBox="0 0 42 20"><g clip-path="url(#clip0)"><path d="M41.519 8.86L32.944.473a1.66 1.66 0 00-2.319.011 1.594 1.594 0 00.01 2.28l5.754 5.623H1.641C.733 8.387 0 9.107 0 10s.733 1.613 1.64 1.613h34.75l-5.765 5.634a1.594 1.594 0 00-.01 2.28 1.66 1.66 0 002.318.01l8.575-8.386a1.588 1.588 0 00.01-2.29z"/></g></symbol><symbol id="icon_phone" viewBox="0 0 17 18"><path d="M7.039 9.961C5.414 8.336 5.051 6.716 4.967 6.065a.584.584 0 01.168-.487l1.315-1.31a.59.59 0 00.084-.726L4.44.292A.585.585 0 003.68.08L.328 1.66a.591.591 0 00-.324.585c.178 1.669.904 5.777 4.941 9.814 4.038 4.038 8.141 4.764 9.815 4.941a.581.581 0 00.584-.323l1.58-3.356a.585.585 0 00-.212-.757l-3.245-2.09a.584.584 0 00-.726.085l-1.32 1.306a.59.59 0 01-.486.168c-.65-.084-2.271-.452-3.896-2.072z"/><path d="M13.485 9.084A.584.584 0 0112.9 8.5a4.401 4.401 0 00-4.396-4.396.584.584 0 110-1.169 5.58 5.58 0 015.57 5.57.59.59 0 01-.59.58z"/><path d="M16.416 9.084a.584.584 0 01-.585-.584A7.34 7.34 0 008.5 1.173.584.584 0 017.916.59c0-.33.26-.59.584-.59A8.508 8.508 0 0117 8.5a.59.59 0 01-.173.416.586.586 0 01-.411.168z"/></symbol><symbol id="icon_prev-arrow" viewBox="0 0 42 20"><path d="M.48 11.141l8.576 8.387a1.66 1.66 0 002.319-.01 1.594 1.594 0 00-.011-2.28L5.61 11.614h34.75c.908 0 1.64-.72 1.64-1.613 0-.892-.732-1.613-1.64-1.613H5.61l5.764-5.634a1.594 1.594 0 00.011-2.28 1.66 1.66 0 00-2.318-.01L.492 8.85a1.587 1.587 0 00-.011 2.29z"/></symbol><symbol id="icon_roadmap-1" viewBox="0 0 32 41"><path d="M16 4.1a.677.677 0 00.667-.683V.683c0-.376-.3-.683-.667-.683a.677.677 0 00-.667.683v2.734c0 .376.3.683.667.683zM9.092 5.501a.66.66 0 00.908.256.695.695 0 00.25-.93s0-.01-.008-.01L8.908 2.453A.66.66 0 008 2.195a.695.695 0 00-.25.931s0 .009.008.009l1.334 2.366zm-6.7 3.63L4.7 10.498a.65.65 0 00.908-.248.685.685 0 00-.241-.93s-.009 0-.009-.01L3.05 7.945a.65.65 0 00-.908.248.7.7 0 00.25.94c-.009 0-.009 0 0 0zM4 16.4c0-.376-.3-.683-.667-.683H.667A.677.677 0 000 16.4c0 .376.3.683.667.683h2.666A.677.677 0 004 16.4zm.7 5.902L2.392 23.67a.695.695 0 00-.25.931.66.66 0 00.908.256s.008 0 .008-.008l2.309-1.367a.695.695 0 00.25-.93.658.658 0 00-.917-.248zm24.908 1.367L27.3 22.302a.65.65 0 00-.908.248.685.685 0 00.241.931s.009 0 .009.009l2.308 1.366a.65.65 0 00.908-.247.7.7 0 00-.25-.94c.009 0 .009 0 0 0zm1.725-7.952h-2.666A.677.677 0 0028 16.4c0 .376.3.683.667.683h2.666A.677.677 0 0032 16.4c0-.376-.3-.683-.667-.683zm-4.366-5.125a.656.656 0 00.333-.094l2.308-1.367a.695.695 0 00.25-.931.66.66 0 00-.908-.256s-.008 0-.008.008L26.633 9.32a.692.692 0 00-.241.93.659.659 0 00.575.343zM22 5.748a.657.657 0 00.908-.247l1.334-2.366A.685.685 0 0024 2.204a.648.648 0 00-.908.247s0 .009-.009.009L21.75 4.826a.695.695 0 00.25.922zm-4.667 21.585A.677.677 0 0018 26.65v-7.517h1.333c1.475 0 2.667-1.221 2.667-2.733s-1.192-2.733-2.667-2.733c-1.475 0-2.666 1.221-2.666 2.733v1.367h-1.334V16.4c0-1.512-1.191-2.733-2.666-2.733-1.475 0-2.667 1.221-2.667 2.733s1.192 2.733 2.667 2.733H14v7.517c0 .376.3.683.667.683a.677.677 0 00.666-.683v-7.517h1.334v7.517c0 .376.3.683.666.683zm2-12.3c.734 0 1.334.615 1.334 1.367s-.6 1.367-1.334 1.367H18V16.4c0-.752.6-1.367 1.333-1.367zm-8 1.367c0-.752.6-1.367 1.334-1.367.733 0 1.333.615 1.333 1.367v1.367h-1.333c-.734 0-1.334-.615-1.334-1.367z"/><path d="M16.517 5.484C10.633 5.194 5.633 9.848 5.35 15.879c-.158 3.45 1.283 6.782 3.883 8.977.467.376.75.948.759 1.563v1.598c0 .862.533 1.631 1.333 1.921v.812c0 .504.183.99.517 1.367a2.06 2.06 0 000 2.733 2.077 2.077 0 00.133 2.887c.367.342.85.538 1.35.53a.658.658 0 00.667-.65.75.75 0 00-.117-.401c-.025-.043-.05-.086-.075-.12a.895.895 0 00-.183-.128l-.059-.025a.605.605 0 00-.208-.043h-.017a.677.677 0 01-.666-.683c0-.376.3-.684.666-.684H16a.677.677 0 00.667-.683c0-.376-.3-.684-.667-.684h-2.667a.677.677 0 01-.666-.683c0-.376.3-.683.666-.683H16a.677.677 0 00.667-.683c0-.376-.3-.684-.667-.684h-2.667a.677.677 0 01-.666-.683v-.683H16a.677.677 0 00.667-.684c0-.376-.3-.683-.667-.683h-4a.677.677 0 01-.667-.683V26.41a3.414 3.414 0 00-1.25-2.623C6.1 20.431 5.525 14.401 8.8 10.327c1.875-2.332 4.708-3.622 7.658-3.485 4.925.299 8.792 4.441 8.875 9.498.025 2.913-1.25 5.672-3.466 7.491a3.41 3.41 0 00-1.2 2.657v1.529c0 .375-.3.683-.667.683h-2a.677.677 0 00-.667.683c0 .376.3.684.667.684h1.333v.683c0 .376-.3.683-.666.683H18a.677.677 0 00-.667.684c0 .375.3.683.667.683h.667c.366 0 .666.307.666.683 0 .376-.3.684-.666.684H18a.677.677 0 00-.667.683c0 .376.3.683.667.683h.667c.366 0 .666.308.666.684 0 .375-.3.683-.666.683h-3.334a.677.677 0 00-.666.683c0 .376.3.684.666.684h2.55a1.985 1.985 0 01-2.55 1.247c-.316-.12-.6-.316-.825-.573a.659.659 0 00-.941-.06.7.7 0 00-.059.966 3.267 3.267 0 004.692.29 3.462 3.462 0 001.075-1.981c1.042-.334 1.625-1.47 1.3-2.546a2.006 2.006 0 00-.433-.769 2.06 2.06 0 000-2.733 2.06 2.06 0 00.516-1.367v-.811a2.04 2.04 0 001.334-1.922v-1.52a2.08 2.08 0 01.708-1.598c2.525-2.084 3.983-5.236 3.958-8.567-.091-5.774-4.508-10.498-10.141-10.84z"/></symbol><symbol id="icon_roadmap-2" viewBox="0 0 34 34"><path d="M26.415 4.161a.67.67 0 00-.665-.664.67.67 0 00-.664.664.67.67 0 00.664.665.67.67 0 00.665-.665zm3.58 0a.67.67 0 00-.665-.664.67.67 0 00-.664.664.663.663 0 101.33 0zm-7.169 0a.67.67 0 00-.664-.664.67.67 0 00-.665.664.663.663 0 101.33 0zm-18.821 0a.67.67 0 00.665.665h9.977a.67.67 0 00.665-.665.67.67 0 00-.665-.664H4.67a.658.658 0 00-.665.664z"/><path d="M31.864 0H11.085a.67.67 0 00-.664.664.67.67 0 00.664.664h20.78c.442 0 .806.363.806.797v4.86H1.329v-4.86a.8.8 0 01.798-.797h2.995a.67.67 0 00.664-.664A.67.67 0 005.122 0H2.127C.957 0 0 .956 0 2.125v29.741C0 33.044.957 34 2.127 34h29.737A2.136 2.136 0 0034 31.866V2.125A2.134 2.134 0 0031.864 0zm0 32.672H2.128a.801.801 0 01-.798-.806V8.314h31.342v23.552a.809.809 0 01-.806.806z"/><path d="M6.212 25.412a2.767 2.767 0 00-2.765 2.762 2.767 2.767 0 002.765 2.762 2.767 2.767 0 002.764-2.762 2.767 2.767 0 00-2.764-2.762zm0 4.196a1.435 1.435 0 11-.002-2.869 1.435 1.435 0 01.002 2.87zm7.195-4.196a2.767 2.767 0 00-2.765 2.762 2.767 2.767 0 002.765 2.762 2.767 2.767 0 002.765-2.762 2.767 2.767 0 00-2.765-2.762zm0 4.196a1.44 1.44 0 01-1.436-1.434 1.435 1.435 0 111.436 1.434zm7.186-4.196a2.767 2.767 0 00-2.764 2.762 2.767 2.767 0 002.764 2.762 2.767 2.767 0 002.765-2.762 2.756 2.756 0 00-2.765-2.762zm0 4.196a1.44 1.44 0 01-1.435-1.434 1.435 1.435 0 012.87 0 1.423 1.423 0 01-1.435 1.434zm7.195-4.196a2.767 2.767 0 00-2.764 2.762 2.767 2.767 0 002.764 2.762 2.767 2.767 0 002.765-2.762 2.767 2.767 0 00-2.765-2.762zm0 4.196a1.435 1.435 0 111.436-1.434c0 .797-.638 1.434-1.436 1.434zM3.447 22.17c.026.346.319.62.665.62h14.877a.67.67 0 00.665-.663V10.882a.67.67 0 00-.665-.664H4.103a.67.67 0 00-.665.664v11.236a.132.132 0 01.009.053zm11.014-.707l-1.24-1.948 1.657-2.604 2.897 4.56h-3.314v-.008zm-1.577 0H5.317l3.783-5.96 3.784 5.96zm5.432-9.917v8.287l-2.88-4.533a.665.665 0 00-.558-.31.643.643 0 00-.559.31l-1.878 2.966-2.774-4.365a.665.665 0 00-.558-.31.643.643 0 00-.558.31l-3.766 5.932v-8.287h13.53zm4.138 0h7.408a.67.67 0 00.664-.664.67.67 0 00-.664-.664h-7.417a.67.67 0 00-.665.664.671.671 0 00.674.664zm0 3.684h7.408a.67.67 0 00.664-.665.67.67 0 00-.664-.664h-7.417a.67.67 0 00-.665.664.677.677 0 00.674.664zm0 3.674h7.408a.67.67 0 00.664-.664.67.67 0 00-.664-.664h-7.417a.67.67 0 00-.665.664.671.671 0 00.674.664zm0 3.683h7.408a.67.67 0 00.664-.664.67.67 0 00-.664-.664h-7.417a.67.67 0 00-.665.664.677.677 0 00.674.664zM8.108 1.328a.663.663 0 100-1.328.663.663 0 100 1.328z"/></symbol><symbol id="icon_roadmap-3" viewBox="0 0 41 41"><path d="M22.486 27.053c-.81-.78-2.08-.78-2.89 0l-1.917 1.939a.697.697 0 01-.964 0L11.9 24.145a.682.682 0 01-.196-.488c0-.18.069-.36.196-.48l1.927-1.94a2.06 2.06 0 000-2.907l-5.77-5.807a2.044 2.044 0 00-2.89 0L1.79 15.92c-2.387 2.41-2.387 6.313 0 8.714l14.44 14.53a6.09 6.09 0 008.66 0l3.367-3.388a2.06 2.06 0 000-2.907l-5.77-5.816zM6.13 13.501a.668.668 0 01.477-.197c.179 0 .358.068.477.197l5.78 5.816a.697.697 0 010 .97l-1.441 1.448-6.742-6.784 1.449-1.45zm17.806 24.694a4.753 4.753 0 01-6.742 0l-14.44-14.53a4.826 4.826 0 010-6.784l.963-.97 6.828 6.87a2.064 2.064 0 00.392 2.334l4.816 4.846a2.077 2.077 0 002.31.386l6.828 6.88-.955.968zm3.367-3.388l-1.44 1.45-6.743-6.785 1.44-1.45a.697.697 0 01.964 0l5.78 5.816a.692.692 0 010 .97zM31.47.069c-5.259 0-9.53 4.297-9.53 9.59 0 5.292 4.271 9.589 9.53 9.589 5.26 0 9.53-4.289 9.53-9.59-.009-5.292-4.27-9.58-9.53-9.59zm0 17.815c-4.509 0-8.166-3.68-8.166-8.217 0-4.537 3.657-8.217 8.166-8.217 4.51 0 8.166 3.68 8.166 8.217 0 4.537-3.657 8.208-8.166 8.217z"/><path d="M31.47 3.5c-2.634 0-4.765 2.144-4.765 4.795 0 2.942 3.845 6.896 4.288 7.333a.681.681 0 00.963 0c.435-.437 4.288-4.391 4.288-7.333-.009-2.65-2.14-4.795-4.774-4.795zm0 10.653c-1.261-1.381-3.4-4.1-3.4-5.858a3.41 3.41 0 013.4-3.423c1.884 0 3.401 1.536 3.401 3.423 0 1.758-2.14 4.468-3.4 5.858z"/><path d="M31.47 6.236a2.053 2.053 0 00-2.046 2.059c0 1.132.913 2.058 2.046 2.058a2.053 2.053 0 002.046-2.058c0-1.141-.92-2.059-2.046-2.059zm0 2.745a.686.686 0 010-1.373.686.686 0 010 1.373zm-2.037 20.543h-1.364v1.372h1.364v-1.372zm2.719 0h-1.364v1.372h1.364v-1.372zm0-2.736h-1.364v1.372h1.364v-1.372zm0-2.737h-1.364v1.373h1.364V24.05zm0-2.745h-1.364v1.373h1.364v-1.373z"/></symbol><symbol id="icon_roadmap-4" viewBox="0 0 38 36"><path d="M37.713 2.274a3.697 3.697 0 00-1.97-1.976A3.578 3.578 0 0034.3.01H22.325a.749.749 0 00-.742.745c0 .407.336.744.742.744h11.964a2.234 2.234 0 012.227 2.234v17.118H8.164V1.49h7.481a.749.749 0 00.742-.744.742.742 0 00-.742-.745H3.711c-.505 0-.99.1-1.445.288a3.683 3.683 0 00-1.177.794 3.4 3.4 0 00-.792 1.182A3.701 3.701 0 000 3.724V23.83a3.719 3.719 0 003.71 3.723h11.213v2.611h-1.118a3.718 3.718 0 00-3.711 3.724v.377c0 .407.336.745.742.745h16.328a.749.749 0 00.742-.745v-.377a3.718 3.718 0 00-3.71-3.723h-1.119v-2.612H34.29A3.719 3.719 0 0038 23.83V3.723c0-.506-.099-.992-.287-1.45zM1.484 7.894H6.68V20.85H1.484V7.894zm2.227-6.405H6.68v4.915H1.484v-2.68c0-1.232 1-2.235 2.227-2.235zm18.634 30.165h1.86c1.099 0 2.019.804 2.197 1.867H11.608a2.244 2.244 0 012.197-1.867h1.86a.749.749 0 00.742-.745v-3.356h5.196v3.356c0 .407.326.745.742.745zm14.17-7.824a2.233 2.233 0 01-2.226 2.234H3.711a2.234 2.234 0 01-2.227-2.234v-1.49h35.032v1.49z"/><path d="M18.99 1.49a.749.749 0 00.742-.745A.749.749 0 0018.99 0a.749.749 0 00-.742.745c0 .407.336.744.742.744zm7.64 13.116l.732-4.061 1.207 4.09c0 .01.01.02.01.03a.886.886 0 00.851.606h.01a.882.882 0 00.841-.616c0-.01.01-.02.01-.03l1.168-4.09.782 4.08a.75.75 0 00.87.596.753.753 0 00.594-.873l-1.247-6.534a.886.886 0 00-.821-.714.898.898 0 00-.9.615c0 .01-1.297 4.548-1.297 4.548s-1.336-4.548-1.346-4.558a.89.89 0 00-.91-.605.906.906 0 00-.822.724l-1.177 6.534a.745.745 0 00.594.863.753.753 0 00.85-.605zM10.688 11.17c0 2.254 1.761 4.101 3.928 4.101.871 0 1.653-.298 2.256-.864.12-.109.228-.228.337-.357a.734.734 0 00-.119-1.043.729.729 0 00-1.039.12c-.06.069-.119.138-.188.198-.326.308-.752.467-1.247.467-1.346 0-2.444-1.172-2.444-2.612 0-1.44 1.098-2.601 2.444-2.601.485 0 .95.149 1.356.437a.744.744 0 001.039-.179.75.75 0 00-.178-1.043 3.767 3.767 0 00-2.207-.704c-2.177-.01-3.938 1.826-3.938 4.08zM23.68 9.532c0-1.33-1.137-2.463-2.483-2.463h-1.603a.749.749 0 00-.742.745v6.702c0 .407.336.745.742.745a.749.749 0 00.742-.745v-1.549l2.068 2.085a.733.733 0 00.525.219c.188 0 .376-.07.524-.219a.75.75 0 000-1.052l-2.078-2.085c1.286-.1 2.306-1.132 2.306-2.383zm-2.493.893h-.851V8.57h.851c.515 0 1 .466 1 .973.01.476-.456.883-1 .883zM4.83 17.575a.749.749 0 01-.743.744.749.749 0 01-.742-.744c0-.408.336-.745.742-.745.406 0 .742.337.742.745zm0-3.346a.749.749 0 01-.743.744.749.749 0 01-.742-.745c0-.406.336-.744.742-.744.406 0 .742.328.742.745zm0-3.357a.749.749 0 01-.743.745.749.749 0 01-.742-.745c0-.407.336-.744.742-.744.406 0 .742.337.742.744z"/></symbol><symbol id="icon_roadmap-5" viewBox="0 0 36 36"><path d="M15.6 12.6c.33 0 .6.27.6.6h1.2c0-.99-.81-1.8-1.8-1.8s-1.8.81-1.8 1.8H15c0-.33.27-.6.6-.6zm4.8 0c.33 0 .6.27.6.6h1.2c0-.99-.81-1.8-1.8-1.8s-1.8.81-1.8 1.8h1.2c0-.33.27-.6.6-.6zM18 31.2c-.66 0-1.2-.54-1.2-1.2 0-.66.54-1.2 1.2-1.2.66 0 1.2.54 1.2 1.2 0 .66-.54 1.2-1.2 1.2zm0-3.6c-1.32 0-2.4 1.08-2.4 2.4 0 1.32 1.08 2.4 2.4 2.4 1.32 0 2.4-1.08 2.4-2.4 0-1.32-1.08-2.4-2.4-2.4z"/><path d="M29.4 34.8V27a3 3 0 00-3-3h-5.032l2.392-4.785c4.132.188 7.44 3.6 7.44 7.785v7.8h-1.8zm-21.6 0V27c0-.99.81-1.8 1.8-1.8h16.8c.99 0 1.8.81 1.8 1.8v7.8H7.8zm-3-7.8c0-4.177 3.308-7.59 7.44-7.785L14.633 24H9.6a3 3 0 00-3 3v7.8H4.8V27zm12.232-3h-1.057l-2.4-4.8h1.058l2.4 4.8zM12 12.6v-2.43c1.875-.165 3.465-1.065 4.26-2.332 1.252 1.664 4.185 2.834 7.74 2.955V12.6c0 1.35-.457 2.595-1.215 3.6H18v1.2h3.585c-.345.255-.713.48-1.11.66a5.999 5.999 0 01-4.95 0A5.997 5.997 0 0112 12.6zm-1.5 0c-.825 0-1.5-.675-1.5-1.5s.675-1.5 1.5-1.5h.3v3h-.3zM24 9.585c-4.328-.15-7.2-1.92-7.2-3.585 0-.33-.27-.6-.6-.6-.33 0-.6.27-.6.6 0 1.5-1.553 2.745-3.563 2.963A6.006 6.006 0 0118 3.6a6.01 6.01 0 016 5.985zM18 1.2c4.11 0 7.477 3.195 7.77 7.23-.09-.008-.18-.03-.27-.03h-.405c-.57-3.397-3.532-6-7.095-6-3.563 0-6.518 2.603-7.095 6H10.5c-.09 0-.18.015-.27.03.293-4.035 3.66-7.23 7.77-7.23zm7.5 11.4h-.3v-3h.3c.825 0 1.5.675 1.5 1.5s-.675 1.5-1.5 1.5zm.3 1.8c0 .907-.683 1.658-1.56 1.777a7.14 7.14 0 00.848-2.377h.404c.105 0 .203-.023.3-.03v.63h.008zm-3.367 4.8l-2.4 4.8h-1.058l2.4-4.8h1.058zM18 19.8c.645 0 1.26-.09 1.852-.248L18 23.258l-1.852-3.713A6.863 6.863 0 0018 19.8zM32.4 27c0-4.965-4.035-9-9-9h-.652c.21-.188.412-.39.607-.6H24a3 3 0 003-3v-1.058a2.714 2.714 0 001.2-2.242c0-.938-.48-1.762-1.207-2.25C26.91 3.96 22.913 0 18 0c-4.912 0-8.91 3.96-8.992 8.85A2.705 2.705 0 007.8 11.1c0 1.485 1.215 2.7 2.7 2.7h.405a7.175 7.175 0 002.348 4.2H12.6c-4.965 0-9 4.035-9 9v7.8H0V36h36v-1.2h-3.6V27z"/><path d="M27 29.4h-1.2v4.2H27v-4.2zm0-2.4h-1.2v1.2H27V27zm5.4-21.6h-1.2v1.2h1.2V5.4zm0 2.4h-1.2V9h1.2V7.8zm0 2.4h-1.2v1.2h1.2v-1.2zM4.8 12.6H3.6v1.2h1.2v-1.2zm0 2.4H3.6v1.2h1.2V15zm0 2.4H3.6v1.2h1.2v-1.2z"/></symbol><symbol id="icon_roadmap-6" viewBox="0 0 44 42"><path d="M11.764 26.633a.838.838 0 00.312-1.153.866.866 0 00-1.171-.306.838.838 0 00-.312 1.152.863.863 0 001.171.307z"/><path d="M8.241 32.47l4.329 7.383c.934 1.597 3.028 2.189 4.693 1.237 1.644-.93 2.213-3.004 1.257-4.622l-2.578-4.4 2.234-1.268a.838.838 0 00.312-1.153l-1.117-1.904c.129-.02 1.01-.19 16.455-3.183 1.912-.106 3.05-2.157 2.094-3.807l-2.857-4.876 1.826-2.718a.83.83 0 00.032-.888l-1.718-2.93a.865.865 0 00-.795-.423L29.1 9.12l-3.17-5.405a2.562 2.562 0 00-2.202-1.269h-.032c-.891 0-1.697.434-2.17 1.174L10.292 17.696 3 21.842C.132 23.471-.867 27.098.798 29.932c1.514 2.592 4.726 3.607 7.443 2.539zm8.786 4.845c.473.803.193 1.84-.634 2.316-.827.465-1.88.18-2.352-.624l-4.296-7.33 2.975-1.692c4.984 8.482 4.232 7.192 4.307 7.33zm-1.944-6.706l-.86-1.47 1.494-.846.859 1.47-1.493.846zm16.895-19.967l1.192 2.02-1.063 1.576-2.051-3.49 1.922-.106zM22.956 4.54a.825.825 0 01.741-.402.82.82 0 01.73.423l10 17.048c.322.55-.075 1.248-.72 1.27-.118 0-.171.02-.472.073L22.666 4.922c.226-.275.247-.307.29-.381zm-1.44 1.82l9.936 16.942-14.984 2.887-4.554-7.773 9.603-12.057zM2.292 29.086a4.208 4.208 0 01-.58-2.116A4.24 4.24 0 013.86 23.3l6.702-3.807 4.296 7.33-6.702 3.807c-2.051 1.174-4.683.476-5.864-1.544z"/><path d="M9.1 27.172a.866.866 0 00-1.17-.306l-1.493.846a.866.866 0 01-1.171-.307.866.866 0 00-1.171-.307.838.838 0 00-.311 1.153c.708 1.206 2.287 1.629 3.523.93l1.493-.845a.86.86 0 00.3-1.164zM42.709 4.255l-4.791 2.622a.831.831 0 00-.333 1.153.858.858 0 001.17.328l4.791-2.623a.834.834 0 00.333-1.153.86.86 0 00-1.17-.327zm-.506 8.767l-3.318-.878a.861.861 0 00-1.053.603c-.118.455.15.92.612 1.036l3.32.878a.853.853 0 001.052-.603.845.845 0 00-.613-1.036zM33.869 1.177l-.892 3.268c-.118.455.15.92.612 1.036a.86.86 0 001.053-.603l.891-3.267a.845.845 0 00-.612-1.037.87.87 0 00-1.052.603z"/></symbol><symbol id="icon_roadmap-7" viewBox="0 0 32 42"><path d="M28.592 34.754a.607.607 0 00-.85.056l-1.387 1.594-.417-.513a.6.6 0 00-.93.753l.866 1.073a.605.605 0 00.922.016l1.86-2.13a.613.613 0 00-.064-.849zm-7.464-22.838H9.886a.605.605 0 00-.601.6c0 .329.272.601.601.601h11.242a.605.605 0 00.6-.6.605.605 0 00-.6-.601zm0 2.883H9.886a.605.605 0 00-.601.6c0 .329.272.6.601.6h11.242a.605.605 0 00.6-.6c0-.328-.272-.6-.6-.6zm0 5.765H9.886a.605.605 0 00-.601.6c0 .33.272.601.601.601h11.242a.6.6 0 100-1.201zm0-2.883H9.886a.605.605 0 00-.601.601c0 .328.272.6.601.6h11.242a.605.605 0 00.6-.6c0-.328-.272-.6-.6-.6zm0 5.766H9.886a.605.605 0 00-.601.6c0 .329.272.601.601.601h11.242a.6.6 0 100-1.201zm0 5.758H9.886a.605.605 0 00-.601.6c0 .329.272.6.601.6h11.242a.605.605 0 00.6-.6c0-.328-.272-.6-.6-.6zm0-2.875H9.886a.605.605 0 00-.601.6c0 .329.272.601.601.601h11.242a.6.6 0 100-1.201zM7.072 13.021c.232.16.553.128.761-.072a.614.614 0 00.177-.424.591.591 0 00-.481-.585.619.619 0 00-.545.16.645.645 0 00-.169.545c.032.16.128.288.257.376zm-.169 2.715c.273.4.882.336 1.059-.104a.592.592 0 00-.433-.817.617.617 0 00-.545.16.614.614 0 00-.169.544c.008.04.048.152.088.217zm.265 5.981a.576.576 0 00.465 0 .577.577 0 00.193-.128.581.581 0 00.16-.544.82.82 0 00-.088-.217.599.599 0 00-1.05.105.6.6 0 00.128.657c.056.047.112.095.192.127zm-.096-3.932a.6.6 0 00-.088.929.599.599 0 00.978-.657.605.605 0 00-.89-.272zm-.257 6.143a.606.606 0 001.019.544.596.596 0 000-.849.604.604 0 00-1.019.305zm.161 5.452a.604.604 0 000 .85.606.606 0 00.85 0c.2-.2.232-.521.072-.761a.609.609 0 00-.922-.088zM6.8 26.93a.6.6 0 00.6.601c.482 0 .77-.528.498-.937-.337-.504-1.099-.24-1.099.336z"/><path d="M30.75 36.075c-.185.192-.979.72-.803 1.77l.089.504c-.024 0-.049.008-.08.016-.273.048-1.211.008-1.684.961l-.225.465c-.024-.016-.048-.024-.072-.032-.024-.008-.072-.04-.112-.064-1.227-.713-1.788-.12-2.27.088-.2-.224-.256-1.225-1.675-1.402-.209-.024-.064 0-.305-.04.008-.024.008-.048.008-.08.032-.264.361-1.153-.4-1.89l-.378-.36.377-.368c.634-.617.513-1.225.385-1.962l.513-.072c.93-.136 1.195-.809 1.476-1.37l.457.24c.938.497 1.683-.095 1.932-.207a.175.175 0 00.064-.032l.233.464c.417.849 1.154.889 1.756.977-.008.024-.008.048-.008.08 0 .024-.016.08-.024.12-.08.368-.241 1.13.424 1.77l.37.36c-.025.032-.04.048-.049.064zm-8.171-2.995c-.457.761.2 1.338-.2 1.722L22 35.17a1.2 1.2 0 00-.232 1.41c-19.275 0-18.065.032-18.201-.064a.36.36 0 01-.16-.297c.016-31.927-.089-31.022.2-31.182.177-.096.024-.016 5.933-.04v.817c0 .913.738 1.65 1.652 1.65h6.126c.914 0 1.652-.737 1.652-1.65v-.817h5.765a.37.37 0 01.36.36v25.801c-.785.353-.617 1.202-1.154 1.274-.36.088-.978.008-1.363.648zM10.744 4.997h7.032v.817c0 .248-.2.448-.449.448h-6.126a.448.448 0 01-.449-.448v-.817h-.008zM31.64 35.162l-.377-.368c-.4-.392.313-1.033-.256-1.81a1.174 1.174 0 00-.754-.472c-.337-.08-.73 0-.898-.329-.184-.296-.265-.792-.826-1.033V13.91a.605.605 0 00-.601-.601.605.605 0 00-.601.6V31.27c-.273.153-.474.289-.714.16l-.313-.16V5.357c0-.857-.697-1.561-1.563-1.561h-4.57c.072-.297.031-.44.04-.977h5.075c1.122 0 2.037.913 2.037 2.034v6.278c0 .328.272.6.6.6a.605.605 0 00.602-.6V4.853a3.239 3.239 0 00-3.24-3.235h-5.075v-.056C20.206.705 19.509 0 18.643 0h-4.37a.605.605 0 00-.601.6c0 .329.272.601.601.601h4.37a.37.37 0 01.36.36v1.874a.37.37 0 01-.36.36H9.87a.37.37 0 01-.36-.36V1.562a.37.37 0 01.36-.36h1.604A.605.605 0 0012.075.6a.605.605 0 00-.601-.601H9.87c-.858 0-1.563.697-1.563 1.562v.056H3.239A3.238 3.238 0 000 4.853v31.879a3.238 3.238 0 003.24 3.235h2.757a.605.605 0 00.602-.6.606.606 0 00-.602-.601H3.24a2.038 2.038 0 01-2.036-2.034V4.852c0-1.12.914-2.033 2.036-2.033h5.068c.008.536-.024.68.04.977h-4.57c-.858 0-1.564.696-1.564 1.561 0 32.312-.008 30.862.008 31.014.08.793.754 1.402 1.555 1.402h18.715c-.064.336-.153.624-.008 1H8.803a.605.605 0 00-.6.601c0 .329.272.601.6.601h15.54c.088.12.305 1.025 1.25 1.025.377 0 .594-.16 1.01-.376.498-.265.89.616 1.805.32.665-.216.77-.817.938-1.081.249-.513 1.082-.024 1.652-.8.409-.561.144-1.114.128-1.41-.064-.36.297-.52.537-.793.457-.48.45-1.233-.024-1.698z"/></symbol><symbol id="icon_roadmap-8" viewBox="0 0 45 46"><path d="M41.599 26.36l-5.189-1.463-1.9-1.913v-2.688a7.496 7.496 0 003-6v-.226c1.663 0 3.001-1.337 3.001-3s-1.338-3-3-3V5.82c0-2.063-1.038-3.939-2.651-4.789-.025-.012-.038-.025-.063-.025a12.467 12.467 0 00-9.577 0c-.025.013-.038.013-.063.025-1.613.85-2.65 2.726-2.65 4.788v2.25a2.994 2.994 0 00-3.002 3.001c0 1.663 1.338 3 3.001 3v.226a7.5 7.5 0 001.6 4.625 3.34 3.34 0 01-2.45-.287 4.851 4.851 0 00-4.314-.15l-.112.05c.025-.163.037-.325.037-.488 0-1.663-1.338-3-3-3a2.993 2.993 0 00-3.001 3c0 .163.012.325.037.488l-.112-.05a4.848 4.848 0 00-4.314.15 3.357 3.357 0 01-2.576.25l-.312-.1-.438 1.437.313.1c.387.113.787.188 1.2.2l-4.989 9.94a.783.783 0 00-.075.337 3.746 3.746 0 003.751 3.75h4.501a3.746 3.746 0 003.751-3.75.825.825 0 00-.075-.338L6.827 20.271c.262-.087.513-.2.75-.325a3.408 3.408 0 012.976-.1l1.45.663v17.115a3.734 3.734 0 00-2.938 2.988A3.762 3.762 0 006.002 44.3c0 .412.337.75.75.75h9.753V30.723c0-1.375.937-2.576 2.275-2.913l2.126-.525-.638 6.438a.734.734 0 00.188.575.73.73 0 00.55.25h2.038l-.513 2.063a.743.743 0 00.313.8l6.414 4.276v3.363h1.5V41.7l6.415-4.276a.75.75 0 00.312-.8l-.512-2.063h2.038a.714.714 0 00.55-.25.749.749 0 00.188-.575l-.65-6.439 2.125.538a3.007 3.007 0 012.276 2.913V45.05H45V30.723a4.467 4.467 0 00-3.401-4.363zM8.252 33.048H3.751c-.95 0-1.8-.6-2.126-1.5h8.753c-.325.9-1.175 1.5-2.126 1.5zm-6.289-3l4.039-8.076 4.038 8.076H1.963zm18.618-4.226l1.925-3.838 1.338 2.675-.238.238-3.025.925zm8.677 3.25l.75-.875.75.876v8.15l-.75 1.976-.75-1.975v-8.151zm-1.5 4.214l-.65-1.7.65-.763v2.463zm4.5 0v-2.463l.651.762-.65 1.7zm-5.763-3.3l-1.626-4.251 1.376-1.376 2.726 2.726-2.476 2.9zm7.027 0l-2.488-2.901 2.725-2.726 1.376 1.376-1.613 4.25zm-.513-7.002l-3 3-3.002-3v-1.813a7.481 7.481 0 006.002 0v1.813zm-7.502-2.688v2.688l-.55.55-1.5-3a4.823 4.823 0 001.2-.2l.65-.188c.063.05.125.1.2.15zm13.504-9.226c0 .825-.675 1.5-1.5 1.5v-3c.825 0 1.5.675 1.5 1.5zM24.007 5.82c0-1.5.712-2.851 1.825-3.451 2.676-1.1 5.69-1.1 8.365 0 1.113.6 1.825 1.95 1.825 3.45v.675a18.598 18.598 0 01-1.287-2.475.76.76 0 00-.95-.412c-2.426.9-5.102.9-7.528 0a.744.744 0 00-.95.412c-.363.863-.8 1.688-1.288 2.475V5.82h-.012zm-3.001 5.25c0-.825.675-1.5 1.5-1.5v3c-.825 0-1.5-.675-1.5-1.5zm3-1.988a18.424 18.424 0 002.389-3.838c2.363.725 4.876.725 7.24 0a18.428 18.428 0 002.387 3.838v5.213a6.003 6.003 0 01-12.003 0l-.012-5.213zm-9.752 7.464c.825 0 1.5.675 1.5 1.5 0 .425-.187.825-.5 1.113a.74.74 0 00-.25.562V37.55h-1.5V19.71a.759.759 0 00-.25-.563 1.453 1.453 0 01-.5-1.113c0-.812.675-1.487 1.5-1.487zm-3.088 23.166a2.25 2.25 0 011.588-.663h2.25v1.5h-4.376c.113-.312.3-.6.538-.837zM7.627 43.55c.325-.9 1.175-1.5 2.126-1.5h5.251v1.5H7.627zm8.878-16.178V20.51l1.45-.663a3.364 3.364 0 012.976.1c.237.125.487.238.75.325l-3.013 6.026-.25.063a4.5 4.5 0 00-1.913 1.012zm7.602 9.102l.625-2.488a.768.768 0 00-.138-.638.728.728 0 00-.587-.287H21.83l.613-6.189 1.113-.375 4.913 12.89-4.363-2.913zm11.903-3.426a.766.766 0 00-.588.288.787.787 0 00-.137.637l.625 2.488-4.364 2.9 4.914-12.889 1.113.375.625 6.189H36.01v.012z"/><path d="M26.632 11.295a1.127 1.127 0 00.788-1.925 1.14 1.14 0 00-1.225-.25c-.425.175-.7.587-.7 1.037a1.142 1.142 0 001.137 1.138zm6.752 0a1.127 1.127 0 00.788-1.925 1.14 1.14 0 00-1.225-.25c-.426.175-.7.587-.7 1.037a1.142 1.142 0 001.137 1.138zm-5.626 4.501h1.4c1.3 0 2.538-.3 3.488-.85l-.75-1.3c-.7.412-1.7.65-2.726.65h-1.412v1.5zm0 26.254h-1.5v1.5h1.5v-1.5zm-6.002-3.751h-1.5v6.75h1.5V38.3zm18.004 0h-1.5v6.75h1.5V38.3z"/></symbol></svg>